<svg width="492.000000" height="423.000000" viewBox="0 0 492 423" fill="none" xmlns="http://www.w3.org/2000/svg" xmlns:xlink="http://www.w3.org/1999/xlink">
	<desc>
			Created with Pixso.
	</desc>
	<defs>
		<clipPath id="clip1_353">
			<rect width="492.000000" height="423.000000" fill="white" fill-opacity="0"/>
		</clipPath>
	</defs>
	<g clip-path="url(#clip1_353)">
		<path d="M370.52 63.56C477.36 158.46 493.84 239.06 488.7 267.5C465.87 394.63 365.86 417.85 335.95 419.54C296.4 421.71 232.89 418.82 191.09 419.94C76.69 426.45 30.3 362.25 21.46 329.38C-33.21 194.86 43.41 91.28 88.59 56.33C204.59 -44.36 324.94 19.2 370.52 63.56Z" fill="#F7BC28" fill-opacity="1.000000" fill-rule="nonzero"/>
		<path d="M186.42 165.77C192.05 153.48 199.05 141.91 205.96 130.33L263.84 34.31C269.07 25.71 277.11 15.83 286.43 16.63C287.72 16.79 288.76 17.91 288.6 19.28C288.6 19.44 288.52 19.6 288.52 19.84C283.86 33.5 276.06 45.96 265.85 56.16C263.44 58.49 260.63 60.1 260.22 61.31C259.98 62.11 256.85 70.79 255.72 74.41C242.54 115.23 230.08 148.5 224.13 162.72L186.42 165.77Z" fill="#FFC9A0" fill-opacity="1.000000" fill-rule="nonzero"/>
		<path d="M229.68 156.21C223.16 175.9 221.07 186.26 210.94 191.89L157.32 212.06C166.01 195.5 176.86 172.52 186.91 156.77L229.68 156.21Z" fill="#307549" fill-opacity="1.000000" fill-rule="nonzero"/>
		<path d="M177.82 166.9C195.11 166.25 212.39 166.5 229.6 167.7C230.88 167.7 232.01 166.58 232.01 165.29C231.93 164 230.88 162.96 229.6 162.88C212.39 161.67 195.11 161.43 177.82 162.08C174.69 162.16 174.69 167.06 177.82 166.9Z" fill="#153A23" fill-opacity="1.000000" fill-rule="nonzero"/>
		<path d="M183.45 203.06C180.96 192.05 181.28 177.75 188.92 165.69C190.61 163.04 187.95 161.27 186.51 164C179.91 176.46 176.13 178.79 175.97 204.5C175.97 207.64 179.27 207.48 179.19 204.34L183.45 203.06Z" fill="#153A23" fill-opacity="1.000000" fill-rule="nonzero"/>
		<path d="M193.66 197.03C197.68 186.5 201.54 175.25 206.2 164.97C206.76 163.76 207.01 163.28 205.72 162.48C204.51 161.83 203.07 162.24 202.34 163.36C195.83 175.09 194.46 191.33 188.92 195.75C187.87 196.55 189.4 198.4 190.61 198.8C191.89 199.04 193.26 198.32 193.66 197.03Z" fill="#153A23" fill-opacity="1.000000" fill-rule="nonzero"/>
		<path d="M201.94 198.08C203.55 195.75 206.12 194.3 208.21 192.53C210.54 190.6 209.42 187.63 211.43 185.38C214.96 181.52 218.26 176.94 221.23 167.06C222.12 164 216.09 162.64 215.53 165.77C213.84 175.01 212.15 177.83 209.26 183.29C207.97 185.78 206.12 187.95 203.95 189.64C201.62 191.49 199.37 193.09 197.68 195.58C197.04 196.79 197.44 198.24 198.56 198.96C199.77 199.6 201.3 199.2 201.94 198.08Z" fill="#153A23" fill-opacity="1.000000" fill-rule="nonzero"/>
		<path d="M160.3 246.93C134.25 247.5 87.38 238.09 61.33 237.93C44.93 237.77 33.6 241.71 12.54 228.85C10.29 227.57 8.28 225.96 6.67 223.95C5.7 222.67 6.91 220.74 8.36 221.3C22.99 227.57 40.59 217.6 55.55 223.63C66.48 228.05 127.66 222.91 162.87 215.11L160.3 246.93Z" fill="#FFC9A0" fill-opacity="1.000000" fill-rule="nonzero"/>
		<path d="M422.13 119.17C407.99 147.05 392.79 174.45 376.63 201.29C366.34 190.44 363.21 188.03 350.42 176.06L351.47 236.08L373.42 248.54C377.68 250.95 382.18 253.44 387.08 253.28C397.45 252.96 403.56 241.71 407.18 231.99C419.48 198.88 428.81 159.83 434.92 125.03L422.13 119.17Z" fill="#FFC9A0" fill-opacity="1.000000" fill-rule="nonzero"/>
		<path d="M277.75 273.53C281.53 318.85 283.3 350.59 285.87 406.44C290.13 406.2 298.33 406.6 302.43 407.65C307.42 370.2 313.93 311.86 318.75 272.65L277.75 273.53Z" fill="#FFC9A0" fill-opacity="1.000000" fill-rule="nonzero"/>
		<path d="M162.47 206.03C201.3 187.55 242.94 170.83 284.34 159.1C284.1 189.8 283.14 207.72 283.3 247.01C245.27 247.25 207.33 245.41 169.54 241.55L162.47 206.03Z" fill="#39B55D" fill-opacity="1.000000" fill-rule="nonzero"/>
		<path d="M351.47 236.08C344.15 231.91 333.86 224.92 324.78 219.53C321.64 241.55 321.81 250.79 318.75 272.73C306.13 272.73 290.37 273.45 277.75 273.53L277.51 161.11C300.74 151.71 328.4 153.96 350.51 176.06L351.47 236.08Z" fill="#153A23" fill-opacity="1.000000" fill-rule="nonzero"/>
		<path d="M168.58 239.62C182.97 239.7 190.52 239.14 204.92 239.86C215.37 240.42 227.26 240.26 254.52 241.79C264.41 242.35 276.3 242.03 286.19 242.03C289.33 242.03 289.33 234.24 286.19 234.24C269.47 234.24 252.75 236.89 236.03 236.41C221.8 236 207.49 235.44 193.26 235.12C184.98 234.88 176.78 234.8 168.5 234.72C165.44 234.72 165.36 239.62 168.58 239.62Z" fill="#153A23" fill-opacity="1.000000" fill-rule="nonzero"/>
		<path d="M153.46 226.04C172.6 226.68 191.65 225.4 210.78 224.75C228.95 224.19 248.17 225.24 266.25 224.27C274.21 223.87 285.23 219.53 289.25 222.1C291.9 223.79 292.38 219.29 289.25 219.21C275.98 218.57 257.17 219.85 241.57 220.58C222.44 221.46 204.27 221.3 185.06 221.46C174.53 221.54 164 221.54 153.46 221.22C150.33 221.06 150.33 225.96 153.46 226.04Z" fill="#153A23" fill-opacity="1.000000" fill-rule="nonzero"/>
		<path d="M150.41 211.25C168.42 211.33 180.56 216.08 198.32 213.18C215.85 210.29 234.5 209.25 260.14 209.08C270.27 209 278.39 206.59 288.52 205.79C289.81 205.71 290.93 204.67 290.93 203.3C290.93 202.09 289.81 200.49 288.52 200.89C283.54 202.17 262.32 205.87 234.58 204.42C216.65 203.54 191.33 208.12 173.4 208.44C163.27 208.6 160.54 206.43 150.41 206.35C147.27 206.43 147.27 211.25 150.41 211.25Z" fill="#153A23" fill-opacity="1.000000" fill-rule="nonzero"/>
		<path d="M170.02 195.02C200.82 193.9 228.95 195.1 259.74 193.33C268.51 192.85 279.84 190.04 288.6 189.4C289.97 189.4 291.01 188.27 291.01 186.91C291.01 185.54 289.89 184.5 288.6 184.5C257.89 186.58 230.56 190.44 196.23 189.08C187.47 188.75 178.71 189.72 169.94 190.04C166.89 190.28 166.81 195.18 170.02 195.02Z" fill="#153A23" fill-opacity="1.000000" fill-rule="nonzero"/>
		<path d="M218.34 175.82C239.32 175.9 260.39 175.33 281.37 174.13C287.24 173.81 293.19 173.41 299.05 172.92C300.42 172.92 301.47 171.8 301.47 170.51C301.47 169.15 300.34 168.1 299.05 168.02C278.07 169.63 257.09 170.59 236.11 170.83C230.16 170.92 224.29 170.92 218.34 170.92C215.12 171 215.12 175.82 218.34 175.82Z" fill="#153A23" fill-opacity="1.000000" fill-rule="nonzero"/>
		<path d="M46.54 150.26C44.29 151.07 42.36 152.43 41 154.36C37.86 158.54 37.94 167.38 43.65 170.03C47.19 171.72 53.7 172.36 56.67 169.79C59.16 167.78 61.09 165.13 62.22 162.08L46.54 150.26Z" fill="#32142A" fill-opacity="1.000000" fill-rule="nonzero"/>
		<path d="M71.3 184.5L81.75 191C82.08 191.17 82.4 191.41 82.64 191.73C82.88 192.13 82.96 192.61 82.96 193.09L83.36 206.83C83.44 207.32 83.36 207.88 83.04 208.28C82.8 208.52 82.4 208.76 82.08 208.84C78.14 210.13 74.2 211.33 70.18 212.38L71.3 184.5Z" fill="#E48929" fill-opacity="1.000000" fill-rule="nonzero"/>
		<path d="M72.35 173.25C72.83 188.27 72.59 203.38 71.54 218.41C71.46 219.45 71.3 220.66 70.5 221.46C69.69 222.26 68.41 222.26 67.2 222.26C47.27 222.34 27.33 222.42 7.39 222.34C6.83 222.42 6.19 222.26 5.7 221.94C5.38 221.54 5.14 221.06 5.14 220.5C2.81 205.15 2.57 189.48 4.42 174.05L72.35 173.25Z" fill="#32142A" fill-opacity="1.000000" fill-rule="nonzero"/>
		<path d="M87.22 185.78C87.3 194.62 87.22 203.46 87.14 212.22C87.14 212.78 87.14 213.42 87.06 213.99C86.98 214.47 86.9 214.47 86.74 214.47C84.89 214.55 82.96 214.55 81.11 214.55C81.03 214.55 81.03 214.55 80.95 214.31C80.95 214.07 80.87 213.75 80.87 213.5C80.63 204.5 80.63 194.78 80.79 185.7L87.22 185.78Z" fill="#32142A" fill-opacity="1.000000" fill-rule="nonzero"/>
		<path d="M45.58 168.83C49.03 169.15 52.57 169.55 55.71 168.26C58.84 166.98 61.66 164.41 62.38 161.11C63.26 157.33 61.33 153.24 58.04 151.07C54.58 148.98 50.4 148.58 46.62 150.02C45.58 150.34 44.61 150.91 43.81 151.55C42.12 153 41.4 155.25 41 157.42C40.51 159.5 40.59 161.67 41.08 163.76C41.72 165.93 43.25 167.62 45.34 168.42L45.58 168.83Z" fill="#E48929" fill-opacity="1.000000" fill-rule="nonzero"/>
		<path d="M46.06 175.17C48.87 170.51 51.29 165.61 53.38 160.55L49.92 160.47C49.52 160.47 49.2 160.47 48.87 160.63C48.63 160.79 48.39 161.03 48.23 161.27C45.01 165.85 43.33 171.24 40.27 175.9L46.06 175.17Z" fill="#32142A" fill-opacity="1.000000" fill-rule="nonzero"/>
		<path d="M15.27 141.58C12.21 142.71 9.56 144.8 7.71 147.45C3.53 153.4 3.93 165.61 11.97 169.15C16.96 171.32 25.96 171.96 30.06 168.34C33.52 165.45 36.09 161.67 37.46 157.42L15.27 141.58Z" fill="#32142A" fill-opacity="1.000000" fill-rule="nonzero"/>
		<path d="M7.79 161.27C6.43 158.54 6.91 155.33 7.39 152.35C7.87 149.38 8.84 146.17 11.17 144C12.3 143.03 13.66 142.23 15.03 141.67C20.17 139.66 26.44 139.82 31.11 142.71C35.77 145.6 38.66 151.31 37.54 156.61C36.57 161.19 32.8 164.89 28.37 166.9C28.45 166.9 12.7 171.24 7.79 161.27Z" fill="#E48929" fill-opacity="1.000000" fill-rule="nonzero"/>
		<path d="M27.81 147.85C27.65 147.53 27.65 147.13 27.73 146.73C27.73 146.33 27.89 146 28.21 145.76C28.37 145.68 28.53 145.52 28.7 145.44C29.34 145.2 30.06 145.2 30.62 145.6C31.19 145.92 31.51 146.65 31.43 147.29C31.27 147.85 30.87 148.33 30.3 148.5C30.3 148.5 28.37 149.06 27.81 147.85Z" fill="#32142A" fill-opacity="1.000000" fill-rule="nonzero"/>
		<path d="M30.95 155.81C30.87 155.49 30.87 155.08 30.95 154.68C30.95 154.28 31.11 153.96 31.43 153.72C31.59 153.56 31.75 153.48 31.91 153.4C32.55 153.16 33.28 153.16 33.84 153.56C34.4 153.88 34.72 154.6 34.64 155.25C34.48 155.81 34.08 156.29 33.52 156.45C33.52 156.53 31.59 157.01 30.95 155.81Z" fill="#32142A" fill-opacity="1.000000" fill-rule="nonzero"/>
		<path d="M18.97 145.44C18.81 145.12 18.81 144.72 18.89 144.32C18.89 143.92 19.05 143.59 19.37 143.35C19.53 143.27 19.69 143.11 19.85 143.03C20.5 142.79 21.22 142.79 21.78 143.19C22.34 143.51 22.67 144.24 22.59 144.88C22.42 145.44 22.02 145.92 21.46 146.08C21.46 146.08 19.53 146.65 18.97 145.44Z" fill="#32142A" fill-opacity="1.000000" fill-rule="nonzero"/>
		<path d="M10.69 149.7C10.53 149.38 10.53 148.98 10.61 148.58C10.61 148.17 10.77 147.85 11.09 147.61C11.25 147.53 11.41 147.37 11.57 147.29C12.21 147.05 12.94 147.05 13.5 147.45C14.06 147.77 14.39 148.5 14.3 149.14C14.14 149.7 13.74 150.18 13.18 150.34C13.26 150.34 11.33 150.91 10.69 149.7Z" fill="#32142A" fill-opacity="1.000000" fill-rule="nonzero"/>
		<path d="M9.4 158.46C9.24 158.14 9.24 157.74 9.32 157.33C9.32 156.93 9.48 156.61 9.8 156.37C9.96 156.29 10.12 156.13 10.29 156.05C10.93 155.81 11.65 155.81 12.21 156.21C12.78 156.53 13.1 157.25 13.02 157.9C12.86 158.46 12.46 158.94 11.89 159.1C11.97 159.1 10.04 159.67 9.4 158.46Z" fill="#32142A" fill-opacity="1.000000" fill-rule="nonzero"/>
		<path d="M16.4 164.41C16.23 164.08 16.23 163.68 16.31 163.28C16.31 162.88 16.48 162.56 16.8 162.32C16.96 162.24 17.12 162.08 17.28 162C17.92 161.75 18.65 161.75 19.21 162.16C19.77 162.48 20.09 163.2 20.01 163.84C19.85 164.41 19.45 164.89 18.89 165.05C18.89 165.13 16.96 165.61 16.4 164.41Z" fill="#32142A" fill-opacity="1.000000" fill-rule="nonzero"/>
		<path d="M25.88 162.56C25.72 162.24 25.72 161.83 25.8 161.43C25.8 161.03 25.96 160.71 26.28 160.47C26.44 160.39 26.6 160.23 26.77 160.15C27.41 159.91 28.13 159.91 28.7 160.31C29.26 160.63 29.58 161.35 29.5 162C29.34 162.56 28.94 163.04 28.37 163.2C28.45 163.28 26.52 163.76 25.88 162.56Z" fill="#32142A" fill-opacity="1.000000" fill-rule="nonzero"/>
		<path d="M55.95 154.92C55.87 154.68 55.87 154.44 55.95 154.2C55.95 153.8 56.19 153.48 56.59 153.32C57.07 153.16 57.56 153.24 57.96 153.48C58.36 153.72 58.52 154.2 58.44 154.68C58.28 155.08 58.04 155.33 57.64 155.49C57.64 155.41 56.27 155.73 55.95 154.92Z" fill="#32142A" fill-opacity="1.000000" fill-rule="nonzero"/>
		<path d="M57.96 160.47C57.88 160.23 57.88 159.99 57.96 159.75C57.96 159.5 58.12 159.26 58.28 159.02C58.36 158.94 58.52 158.86 58.6 158.86C59.08 158.7 59.57 158.7 59.97 158.94C60.37 159.18 60.61 159.67 60.45 160.15C60.29 160.55 60.05 160.79 59.65 160.95C59.73 160.95 58.36 161.35 57.96 160.47Z" fill="#32142A" fill-opacity="1.000000" fill-rule="nonzero"/>
		<path d="M49.76 153C49.68 152.75 49.68 152.51 49.76 152.27C49.76 152.03 49.92 151.79 50.08 151.55C50.16 151.47 50.32 151.39 50.4 151.39C50.88 151.23 51.37 151.23 51.77 151.47C52.17 151.71 52.33 152.19 52.25 152.67C52.09 153.08 51.85 153.32 51.45 153.48C51.53 153.56 50.16 153.88 49.76 153Z" fill="#32142A" fill-opacity="1.000000" fill-rule="nonzero"/>
		<path d="M43.97 155.89C43.89 155.65 43.89 155.41 43.97 155.17C43.97 154.92 44.13 154.68 44.29 154.44C44.37 154.36 44.53 154.28 44.61 154.28C45.1 154.12 45.58 154.12 45.98 154.36C46.38 154.6 46.54 155.08 46.46 155.57C46.3 155.97 46.06 156.21 45.66 156.37C45.74 156.37 44.37 156.69 43.97 155.89Z" fill="#32142A" fill-opacity="1.000000" fill-rule="nonzero"/>
		<path d="M42.92 161.92C42.76 161.43 42.92 160.87 43.25 160.47C43.33 160.39 43.49 160.31 43.57 160.31C44.05 160.15 44.53 160.15 44.93 160.39C45.34 160.63 45.58 161.11 45.42 161.59C45.34 162 45.01 162.32 44.61 162.48C44.69 162.48 43.33 162.8 42.92 161.92Z" fill="#32142A" fill-opacity="1.000000" fill-rule="nonzero"/>
		<path d="M47.67 166.17C47.59 165.93 47.59 165.69 47.67 165.45C47.67 165.21 47.83 164.97 47.99 164.73C48.07 164.65 48.23 164.57 48.31 164.57C48.79 164.41 49.28 164.49 49.68 164.65C50.08 164.89 50.24 165.37 50.16 165.85C50 166.25 49.76 166.5 49.36 166.66C49.44 166.66 48.07 167.06 47.67 166.17Z" fill="#32142A" fill-opacity="1.000000" fill-rule="nonzero"/>
		<path d="M54.34 165.05C54.26 164.81 54.26 164.57 54.34 164.33C54.34 164.08 54.5 163.84 54.66 163.6C54.74 163.52 54.9 163.44 54.98 163.44C55.47 163.28 55.95 163.28 56.35 163.52C56.75 163.76 56.91 164.25 56.83 164.73C56.67 165.13 56.43 165.37 56.03 165.53C56.03 165.61 54.74 165.93 54.34 165.05Z" fill="#32142A" fill-opacity="1.000000" fill-rule="nonzero"/>
		<path d="M36.09 175.17L23.07 154.04C22.91 153.64 22.59 153.32 22.18 153.16C21.78 153 21.3 153 20.9 153.16L17.84 153.72C22.67 160.87 26.93 168.42 30.38 176.3L36.09 175.17Z" fill="#32142A" fill-opacity="1.000000" fill-rule="nonzero"/>
		<path d="M210.86 244.92C213.92 240.1 215.45 234.4 215.21 228.69C215.21 228.69 212.47 237.69 195.99 244.12L210.86 244.92Z" fill="#307549" fill-opacity="1.000000" fill-rule="nonzero"/>
		<path d="M324.78 219.53L301.31 204.99L322.69 236.17L324.78 219.53Z" fill="#122D1C" fill-opacity="1.000000" fill-rule="nonzero"/>
		<path d="M131.36 155.33C132.4 175.01 126.61 194.46 126.37 214.15C126.29 215.19 126.45 216.32 126.77 217.28C127.66 219.37 130.23 220.25 132.56 220.58C139.56 221.54 146.63 219.45 153.3 216.96C156.36 215.83 159.57 214.47 161.5 211.9C163.43 209.33 163.83 205.71 164.08 202.42C165.28 186.42 166.57 159.75 165.84 143.67L131.36 155.33Z" fill="#FFC9A0" fill-opacity="1.000000" fill-rule="nonzero"/>
		<path d="M170.75 181.6C178.71 166.74 186.18 149.94 182.49 136.28C181.84 133.39 180.4 130.82 178.22 128.73C173.08 124.07 165.04 125.35 158.21 126.72C149.2 128.57 138.43 129.61 132.24 122.86C130.87 121.42 129.83 119.65 128.3 118.52C126.77 117.4 124.28 116.92 122.83 118.28C121.87 119.17 121.63 120.61 121.55 121.9C120.42 132.42 121.87 143.51 127.66 152.35C133.45 161.19 144.06 167.3 154.51 165.77C155.63 165.61 156.92 165.45 157.64 166.25C157.97 166.66 158.13 167.06 158.29 167.54L162.55 181.6L170.75 181.6Z" fill="#32142A" fill-opacity="1.000000" fill-rule="nonzero"/>
		<path d="M160.54 176.14C164.4 173.33 169.86 174.13 172.76 178.07C174.85 180.88 175.01 184.66 173.24 187.63C170.67 191.97 164.88 193.25 159.82 193.17L160.54 176.14Z" fill="#FFC9A0" fill-opacity="1.000000" fill-rule="nonzero"/>
		<path d="M177.42 167.94C157.32 168.58 131.44 154.6 131.44 154.6C131.52 157.58 131.36 162.16 131.36 165.05C144.94 166.66 161.34 174.05 175.01 173.25C175.01 173.25 176.3 170.75 177.42 167.94Z" fill="#39B55D" fill-opacity="1.000000" fill-rule="nonzero"/>
		<path d="M126.37 149.78C128.78 155.57 133.93 159.99 139.72 162.48C145.5 164.97 151.86 165.77 158.21 166.01C159.65 166.09 161.1 166.01 162.55 165.85C164.48 165.37 166.41 164.65 168.18 163.68L126.37 149.78Z" fill="#32142A" fill-opacity="1.000000" fill-rule="nonzero"/>
		<path d="M351.47 236.08L354.93 238.09L351.47 177.1L350.42 176.06L351.47 236.08Z" fill="#EFB086" fill-opacity="1.000000" fill-rule="nonzero"/>
		<path d="M277.75 273.53L277.99 276.26L318.35 275.7L318.67 272.73L277.75 273.53Z" fill="#EFB086" fill-opacity="1.000000" fill-rule="nonzero"/>
		<path d="M154.03 202.82C162.07 204.1 175.09 205.31 183.13 206.59C189.4 207.56 195.83 208.6 201.54 211.25C207.25 213.91 212.55 218.49 214.48 224.51C215.12 226.36 215.29 228.37 215.04 230.3C214.08 236.25 208.05 239.78 202.5 242.11C186.99 248.7 170.51 252.48 153.71 253.36L154.03 202.82Z" fill="#39B55D" fill-opacity="1.000000" fill-rule="nonzero"/>
		<path d="M165.2 253.36C164.48 236.08 164.88 218.81 166.49 201.53C166.49 200.25 165.36 199.12 164.08 199.12C162.71 199.12 161.66 200.25 161.58 201.53C159.98 218.73 159.57 236.08 160.3 253.36C160.46 256.5 165.36 256.5 165.2 253.36Z" fill="#153A23" fill-opacity="1.000000" fill-rule="nonzero"/>
		<path d="M164.16 215.11C170.59 214.71 177.1 214.71 183.53 215.11C190.44 215.67 199.13 218.41 205.8 220.33C208.77 221.06 211.59 222.26 214.16 223.71C216.89 225.32 219.31 221.14 216.65 219.45C211.27 216.24 204.75 214.71 198.64 213.67C191.17 212.38 183.69 211.74 176.13 211.58C172.36 211.5 168.58 211.5 164.8 211.74C161.66 211.9 161.66 216.8 164.8 216.64L164.16 215.11Z" fill="#153A23" fill-opacity="1.000000" fill-rule="nonzero"/>
		<path d="M163.75 231.1C200.33 229.58 215.21 228.69 219.63 230.06C220.91 230.46 222.04 229.01 222.04 227.65C222.04 226.36 220.91 225 219.63 225.24C200.33 228.13 182.41 226.92 163.75 226.28C160.62 226.2 160.62 231.1 163.75 231.1Z" fill="#153A23" fill-opacity="1.000000" fill-rule="nonzero"/>
		<path d="M163.67 244.52C177.98 245.17 192.78 245.49 206.84 242.35C210.46 241.55 214 240.42 217.46 238.9C218.58 238.17 218.98 236.73 218.34 235.52C217.62 234.4 216.17 234 214.96 234.64C209.26 237.21 202.82 238.33 196.63 239.06C189.48 239.86 183.53 241.63 176.3 241.55C172.52 241.47 166.73 241.15 162.95 240.99C159.89 240.91 160.54 244.36 163.67 244.52Z" fill="#153A23" fill-opacity="1.000000" fill-rule="nonzero"/>
		<path d="M128.86 219.45L154.03 211.98L154.03 216.88L128.86 219.45Z" fill="#EFB086" fill-opacity="1.000000" fill-rule="nonzero"/>
		<path d="M164.72 192.77C164.72 192.77 161.82 192.85 160.62 192.37L164.56 194.78L164.72 192.77Z" fill="#EFB086" fill-opacity="1.000000" fill-rule="nonzero"/>
		<path d="M162.23 190.04C164.24 190.28 166.25 189.8 167.93 188.75C169.38 187.87 170.27 186.34 170.51 184.66C170.75 183.05 170.59 181.36 169.86 179.83C169.22 178.47 168.02 177.58 166.57 177.26C164.88 176.94 163.03 177.18 161.5 177.99C161.1 178.23 160.94 178.79 161.18 179.19C161.42 179.59 161.91 179.75 162.31 179.51C164.08 178.71 167.05 178.39 168.18 180.4C168.74 181.52 168.98 182.81 168.82 184.01C168.82 185.22 168.26 186.34 167.37 187.15C165.84 188.19 164 188.67 162.23 188.43C161.74 188.43 161.34 188.83 161.34 189.32C161.34 189.64 161.74 189.96 162.23 190.04Z" fill="#32142A" fill-opacity="1.000000" fill-rule="nonzero"/>
		<path d="M162.63 186.42C163.27 186.42 164 186.34 164.56 186.02C165.2 185.7 165.6 185.22 165.84 184.5C166.17 183.77 166.17 183.05 165.84 182.33C165.6 181.84 165.12 181.36 164.64 181.2C163.92 180.88 163.19 180.8 162.47 180.8C161.99 180.8 161.58 181.2 161.58 181.68C161.58 182.17 161.99 182.57 162.47 182.57L162.95 182.57L163.19 182.57C163.27 182.57 163.35 182.57 163.27 182.57C163.43 182.57 163.59 182.65 163.75 182.65L163.92 182.73L163.83 182.73L163.92 182.73C164 182.73 164.08 182.81 164.08 182.81L164.16 182.81L164.08 182.81L164.32 183.05C164.24 182.97 164.24 182.97 164.32 182.97L164.4 183.05L164.4 183.13C164.48 183.21 164.4 183.21 164.4 183.05C164.4 183.13 164.4 183.13 164.48 183.21L164.48 183.29C164.48 183.37 164.48 183.61 164.48 183.37C164.48 183.45 164.48 183.53 164.4 183.61C164.32 183.77 164.32 183.93 164.24 184.01L164.24 183.93L164.16 184.01C164.16 184.09 164.08 184.17 164.08 184.17C164.16 184.09 164.16 184.09 164.16 184.09L164.08 184.17L164 184.25C164.08 184.17 164.08 184.17 164.08 184.25L163.92 184.33L163.83 184.33C163.75 184.42 163.51 184.42 163.43 184.42C163.35 184.42 163.11 184.5 163.35 184.42C163.27 184.42 163.19 184.42 163.11 184.42L162.63 184.42C162.15 184.5 161.82 184.9 161.82 185.38C161.91 186.02 162.23 186.34 162.63 186.42Z" fill="#32142A" fill-opacity="1.000000" fill-rule="nonzero"/>
		<path d="M130.15 178.87C128.94 179.75 125.17 188.59 124.52 195.02C124.44 196.15 125.25 197.19 126.45 197.27C128.38 197.43 130.23 197.43 132.16 197.27C132.4 197.27 132.64 197.19 132.88 197.11C133.12 196.79 133.28 196.47 133.21 196.07L130.15 178.87Z" fill="#E48929" fill-opacity="1.000000" fill-rule="nonzero"/>
		<path d="M260.55 60.42L252.67 66.93L258.29 66.93L260.55 60.42Z" fill="#EFB086" fill-opacity="1.000000" fill-rule="nonzero"/>
		<path d="M395.93 168.02L423.1 180.48C423.1 180.48 431.22 150.91 435 125.03L421.09 121.33L395.93 168.02Z" fill="#39B55D" fill-opacity="1.000000" fill-rule="nonzero"/>
		<path d="M417.47 129.29C421.01 123.02 430.74 128.97 432.75 131.7C434.84 134.51 437.89 129.61 440.3 127.12C443.12 124.15 453.49 121.33 460.72 119.65C465.22 118.6 469.73 117.4 474.31 116.51C477.44 115.87 483.72 115.55 485.32 113.7C490.55 107.83 478.73 106.95 475.52 106.87C464.9 106.47 454.29 106.71 443.68 106.47C435.4 106.31 421.17 106.15 418.68 108.24C414.1 112.17 412.97 121.9 412.09 127.44C411.12 133.55 414.34 134.83 417.47 129.29Z" fill="#153A23" fill-opacity="1.000000" fill-rule="nonzero"/>
		<path d="M400.83 169.55C401.63 167.06 402.68 164.73 403.97 162.4C404.29 161.83 404.13 161.03 403.56 160.71C403 160.39 402.2 160.55 401.88 161.11C400.59 163.6 399.46 166.17 398.58 168.83C398.42 169.47 398.82 170.11 399.46 170.35C399.95 170.59 400.59 170.19 400.83 169.55Z" fill="#227B3D" fill-opacity="1.000000" fill-rule="nonzero"/>
		<path d="M405.73 172.12C406.38 169.47 407.5 166.9 409.03 164.65C409.35 164.08 409.19 163.28 408.55 162.96C407.99 162.64 407.18 162.8 406.86 163.44C405.17 165.85 403.97 168.58 403.32 171.48C403.16 172.12 403.56 172.76 404.21 173C404.85 173.17 405.57 172.76 405.73 172.12Z" fill="#227B3D" fill-opacity="1.000000" fill-rule="nonzero"/>
		<path d="M411.2 174.13C411.2 173.97 411.2 173.89 411.2 173.81C411.2 173.73 411.28 173.49 411.28 173.33C411.36 173 411.36 172.76 411.44 172.44C411.6 171.8 411.76 171.24 412.01 170.59C412.17 170.03 412.41 169.47 412.73 168.99C413.05 168.42 413.37 167.86 413.69 167.3C414.02 166.74 413.85 165.93 413.29 165.61C412.73 165.29 412.01 165.45 411.6 166.09C410 168.5 409.03 171.24 408.71 174.13C408.71 174.77 409.27 175.33 409.92 175.33C410.56 175.33 411.12 174.77 411.2 174.13Z" fill="#227B3D" fill-opacity="1.000000" fill-rule="nonzero"/>
		<path d="M416.11 177.26C416.35 174.85 416.91 172.44 417.79 170.11C417.95 169.47 417.55 168.83 416.91 168.58C416.27 168.42 415.62 168.83 415.38 169.47C414.42 171.96 413.77 174.61 413.61 177.26C413.61 177.91 414.18 178.47 414.82 178.47C415.54 178.47 416.11 177.99 416.11 177.26Z" fill="#227B3D" fill-opacity="1.000000" fill-rule="nonzero"/>
		<path d="M420.04 179.59L423.02 172.2C423.18 171.56 422.78 170.92 422.13 170.67C421.49 170.51 420.85 170.92 420.61 171.56L417.63 178.95C417.47 179.59 417.87 180.24 418.52 180.48C419.16 180.56 419.88 180.24 420.04 179.59Z" fill="#227B3D" fill-opacity="1.000000" fill-rule="nonzero"/>
		<path d="M308.78 356.7C306.53 375.5 305.08 388.76 302.83 404.92L285.87 406.52C284.91 385.31 284.02 371.97 283.46 356.3L308.78 356.7Z" fill="#39B55D" fill-opacity="1.000000" fill-rule="nonzero"/>
		<path d="M303.32 400.58C302.67 405.24 302.43 409.9 301.79 414.56C301.22 418.82 296.32 418.5 293.1 418.66C284.5 419.14 278.88 419.3 272.04 419.3C267.62 419.46 263.2 419.54 258.78 419.62C256.53 419.62 254.36 419.62 252.11 419.62C250.66 419.62 247.44 419.78 246.4 419.3C243.74 418.01 243.82 412.47 246.8 411.42C251.94 409.66 257.97 409.9 263.36 409.09C269.07 408.37 274.62 406.92 280 404.92C282.9 403.79 285.87 402.34 288.92 402.67C290.93 402.91 292.78 403.87 294.71 404.11C296.4 404.35 298.41 403.79 299.29 402.42C299.7 401.7 300.18 401.14 300.74 400.58C302.03 399.45 303.64 398.33 303.32 400.58Z" fill="#153A23" fill-opacity="1.000000" fill-rule="nonzero"/>
		<path d="M286.59 364.42C286.35 361.68 286.35 359.03 286.59 356.3C286.59 355.66 286.03 355.09 285.39 355.09C284.74 355.09 284.18 355.66 284.18 356.3C283.94 359.03 284.02 361.68 284.18 364.42C284.1 365.06 284.5 365.7 285.23 365.78C285.87 365.86 286.51 365.46 286.59 364.74C286.59 364.74 286.59 364.58 286.59 364.42Z" fill="#227B3D" fill-opacity="1.000000" fill-rule="nonzero"/>
		<path d="M292.14 364.5C291.66 361.92 291.66 359.27 292.14 356.62C292.3 355.98 291.9 355.33 291.26 355.09C290.61 354.93 289.97 355.33 289.73 355.98C289.17 359.03 289.17 362.08 289.73 365.14C289.89 365.78 290.61 366.18 291.26 366.02C291.9 365.86 292.3 365.22 292.14 364.5Z" fill="#227B3D" fill-opacity="1.000000" fill-rule="nonzero"/>
		<path d="M297.93 364.5C297.21 362.17 297.04 359.67 297.45 357.26C297.61 356.62 297.21 355.98 296.56 355.74C295.92 355.58 295.28 355.98 295.03 356.62C294.55 359.43 294.71 362.41 295.52 365.14C295.68 365.78 296.4 366.18 297.04 366.02C297.69 365.86 298.17 365.14 297.93 364.5Z" fill="#227B3D" fill-opacity="1.000000" fill-rule="nonzero"/>
		<path d="M303.8 365.38C302.99 363.05 302.51 360.64 302.43 358.15C302.51 357.5 302.11 356.86 301.39 356.78C300.74 356.7 300.1 357.1 300.02 357.83C300.02 357.99 300.02 358.07 300.02 358.23C300.1 360.88 300.58 363.53 301.47 366.1C301.63 366.75 302.35 367.15 302.99 366.99C303.64 366.83 303.96 366.02 303.8 365.38Z" fill="#227B3D" fill-opacity="1.000000" fill-rule="nonzero"/>
		<path d="M308.22 365.94L307.98 357.99C308.06 357.34 307.66 356.7 306.93 356.62C306.29 356.54 305.65 356.94 305.57 357.67C305.57 357.83 305.57 357.91 305.57 358.07L305.81 366.02C305.73 366.67 306.13 367.31 306.85 367.39C307.5 367.47 308.14 367.07 308.22 366.34C308.22 366.18 308.22 366.02 308.22 365.94Z" fill="#227B3D" fill-opacity="1.000000" fill-rule="nonzero"/>
		<path d="M275.5 174.77C284.18 172.2 292.7 170.19 301.55 169.95C312.56 169.63 323.41 172.44 332.82 178.07C339.73 182.41 346 187.79 351.23 194.06C352.19 195.02 353.72 195.02 354.69 194.06C355.65 193.09 355.65 191.57 354.69 190.6C345.52 180 334.02 171.32 320.52 167.38C310.07 164.41 299.22 164.49 288.6 166.42C283.78 167.38 278.96 168.58 274.21 170.03C271.24 171 272.52 175.74 275.5 174.77Z" fill="#307549" fill-opacity="1.000000" fill-rule="nonzero"/>
		<path d="M461.04 103.74C448.26 108.48 432.75 106.47 421.49 93.69C414.74 85.98 412.97 75.77 414.9 65.89C420.77 35.91 464.74 28.36 479.86 55.6C491.75 77.22 479.05 97.07 461.04 103.74Z" fill="#BBD1CE" fill-opacity="1.000000" fill-rule="nonzero"/>
		<path d="M142.37 175.01L143.09 175.01L143.5 175.09C143.82 175.09 143.42 175.09 143.33 175.09C143.82 175.25 144.3 175.25 144.78 175.42C145.26 175.58 145.67 175.74 146.07 175.9C146.39 175.98 145.59 175.66 145.99 175.82L146.31 175.98C146.55 176.06 146.79 176.22 147.03 176.3C147.43 176.54 147.84 176.78 148.24 177.02L148.48 177.18C148.88 177.5 148.16 176.94 148.4 177.1C148.64 177.26 148.72 177.42 148.96 177.58C149.36 177.91 149.69 178.23 150.01 178.63L150.17 178.87C150.41 179.19 150.25 178.95 150.09 178.79C150.25 179.03 150.41 179.19 150.57 179.43C151.21 180.56 152.74 180.96 153.95 180.32C155.15 179.67 155.47 178.15 154.83 176.94C152.1 172.84 147.52 170.27 142.53 170.11C141.16 170.11 140.12 171.24 140.04 172.6C140.04 173.89 141.08 174.93 142.37 175.01Z" fill="#32142A" fill-opacity="1.000000" fill-rule="nonzero"/>
		<path d="M142.05 180.96C141.97 181.04 141.97 181.12 141.89 181.2C141.41 182.25 140.36 184.9 141.16 185.94C141.97 186.99 143.5 186.67 144.38 185.78C145.67 184.33 145.67 182.17 144.38 180.72C143.98 180.24 143.33 180 142.69 180.24C142.45 180.48 142.21 180.72 142.05 180.96Z" fill="#32142A" fill-opacity="1.000000" fill-rule="nonzero"/>
		<path d="M145.26 192.13C147.27 190.84 148.88 188.92 149.77 186.67C149.93 186.18 149.61 185.78 149.2 185.62C148.72 185.54 148.32 185.78 148.16 186.18L148.08 186.26L148 186.34L147.84 186.67C147.76 186.91 147.6 187.15 147.43 187.39C147.27 187.63 147.19 187.87 147.03 188.03L146.79 188.35C146.87 188.19 146.71 188.43 146.71 188.43L146.63 188.59C146.31 189 145.91 189.4 145.5 189.72L145.18 189.96L145.02 190.12C145.1 190.04 145.02 190.12 144.94 190.12C144.7 190.28 144.54 190.44 144.3 190.6C143.9 190.84 143.66 191.33 143.9 191.73C144.14 192.13 144.62 192.37 145.02 192.13C145.18 192.13 145.18 192.05 145.26 192.13Z" fill="#32142A" fill-opacity="1.000000" fill-rule="nonzero"/>
		<path d="M148.56 193.74C149.61 193.09 150.57 192.29 151.29 191.33C151.45 191.17 151.45 190.92 151.37 190.68C151.29 190.44 151.13 190.28 150.97 190.2C150.81 190.12 150.57 190.04 150.33 190.12C150.09 190.2 149.93 190.36 149.85 190.52L149.77 190.68L149.93 190.52C149.52 191 149.04 191.49 148.56 191.89L148.72 191.73C148.4 191.97 148.08 192.21 147.76 192.37C147.35 192.61 147.19 193.17 147.43 193.58C147.6 193.9 148.16 194.06 148.56 193.74Z" fill="#32142A" fill-opacity="1.000000" fill-rule="nonzero"/>
		<path d="M462.65 81.32C457.43 83.41 452.84 85.98 447.7 88.07C443.52 83.97 438.45 81.56 434.27 77.38C435.4 72.08 436.69 66.61 437.81 61.23C442.8 60.02 446.82 58.5 451.8 57.45L451.16 57.37C455.74 60.75 460 62.59 464.5 65.97C463.7 70.95 463.46 76.33 462.65 81.32C462.41 82.6 460.72 83.73 462.09 84.05C463.3 84.37 464.9 83.65 465.14 82.36L467.48 67.58C467.72 66.53 467.23 65.41 466.35 64.84L458.87 59.3L454.13 55.76C453.73 55.44 453.33 55.12 452.92 54.88C451.72 54.08 450.19 54.64 448.91 54.96C444.64 56 440.46 57.61 436.2 58.66C435.4 58.9 434.68 59.54 434.52 60.34L432.51 70.23L431.38 75.53C431.22 76.01 431.14 76.5 431.14 76.98C431.14 78.91 433.87 80.59 435.24 81.64C438.62 84.29 442.31 86.7 445.45 89.75C446.09 90.4 446.98 90.64 447.86 90.4L463.54 84.13C464.82 83.73 465.55 82.44 465.22 81.08C464.82 79.87 463.86 80.83 462.65 81.32Z" fill="#153A23" fill-opacity="1.000000" fill-rule="nonzero"/>
		<path d="M462.09 83.08L462.65 83.33C465.39 84.69 467.96 86.54 470.69 87.99C471.82 88.63 473.02 89.19 474.23 89.59C474.87 89.83 479.7 90.4 478.01 89.19C476.48 88.15 473.18 86.3 471.25 85.01C468.68 83.33 466.19 81.4 463.86 79.39C466.83 81.96 463.46 81.96 461.77 82.92C461.93 83 462.01 83.08 462.09 83.08Z" fill="#153A23" fill-opacity="1.000000" fill-rule="nonzero"/>
		<path d="M443.12 102.21C444.64 97.55 446.82 93.29 448.5 88.71C448.99 87.5 447.94 89.27 446.73 89.03C445.37 88.71 445.21 87.1 444.72 88.39C443.04 92.97 442.39 96.83 440.87 101.49C440.46 102.69 440.06 103.9 441.27 104.22C442.47 104.54 442.31 104.06 442.72 102.77L443.12 102.21Z" fill="#153A23" fill-opacity="1.000000" fill-rule="nonzero"/>
		<path d="M432.83 75.21C431.94 75.37 431.14 75.61 430.25 76.01C428.49 76.58 426.72 76.9 424.87 76.98C423.58 77.14 422.3 77.3 421.01 77.46C420.13 77.54 418.6 77.94 417.71 78.1C416.83 78.26 415.94 78.58 417.31 79.39C417.71 79.55 418.12 79.63 418.52 79.55C421.25 79.55 423.98 79.55 426.72 79.79C429.37 80.11 432.1 80.11 434.84 79.79C436.12 79.63 432.91 78.1 432.59 77.22C432.26 76.33 434.19 74.97 432.83 75.21Z" fill="#153A23" fill-opacity="1.000000" fill-rule="nonzero"/>
		<path d="M437.41 58.58C437.25 58.5 437.09 59.06 436.93 58.98C436.93 58.98 437.49 58.66 437.25 58.5C437.17 58.5 437.09 59.06 436.93 58.98C436.52 58.82 436.2 58.66 435.8 58.41C434.11 57.53 432.51 56.49 430.82 55.6C429.13 54.72 427.6 53.91 425.99 53.11C425.35 52.79 422.94 51.5 422.78 52.31C422.78 52.95 423.02 53.59 423.5 54C424.79 55.2 426.23 56.41 427.68 57.45C429.05 58.66 430.58 59.7 432.1 60.75C433.79 61.79 434.19 62.67 436.04 63.32C437.25 63.72 434.92 62.51 435.24 61.31C435.64 59.94 438.7 59.06 437.41 58.58Z" fill="#153A23" fill-opacity="1.000000" fill-rule="nonzero"/>
		<path d="M453.17 57.13C453.81 56 454.37 55.6 454.61 54.4C455.26 51.91 456.22 49.58 457.35 47.25C458.15 45.72 458.87 44.11 459.6 42.42C459.76 41.86 460.08 40.9 459.6 40.41C459.28 40.09 458.63 40.25 458.31 40.5C457.67 40.98 457.19 41.62 456.86 42.34C455.58 44.59 454.21 46.84 453.01 49.17C452.44 50.3 451.96 51.42 451.32 52.47C450.67 53.51 450.03 54.56 449.39 55.6C448.74 56.65 450.51 55.2 451.72 55.84C452.92 56.49 452.44 58.25 453.17 57.13Z" fill="#153A23" fill-opacity="1.000000" fill-rule="nonzero"/>
		<path d="M466.35 69.02C469.49 67.41 472.7 65.89 475.92 64.44L475.6 64.6C476.96 64.2 481.87 61.55 481.22 60.34C480.9 59.7 477.04 60.83 476 61.31C474.95 61.79 471.66 62.75 470.45 63.16C468.28 63.8 465.95 63.8 463.94 64.84C462.81 65.41 464.74 65.57 465.39 66.69C466.03 67.82 465.14 69.66 466.35 69.02Z" fill="#153A23" fill-opacity="1.000000" fill-rule="nonzero"/>
		<path d="M427.04 109.44L427.12 106.07L425.35 108.4C427.52 108.08 429.77 107.67 431.94 107.27L431.3 107.35C431.46 107.35 431.54 107.35 431.7 107.35L431.06 107.27C431.46 107.35 431.22 107.19 430.42 106.87C430.25 106.71 430.17 106.55 430.09 106.39C429.93 105.99 430.09 106.39 430.09 106.47C430.17 106.79 430.25 107.11 430.33 107.43L430.74 109.52C431.14 110.81 432.42 111.61 433.71 111.21C435 110.81 435.72 109.52 435.4 108.16C435.16 107.11 435 106.07 434.76 105.02C434.6 104.22 434.11 103.58 433.55 103.09C432.67 102.45 431.62 102.29 430.58 102.53C428.41 102.85 426.23 103.25 424.06 103.58C423.58 103.74 423.1 103.98 422.78 104.46C422.46 104.86 422.3 105.42 422.22 105.99L422.13 109.36C422.13 110.65 423.26 111.77 424.55 111.77C425.91 111.77 426.96 110.73 427.04 109.44Z" fill="#153A23" fill-opacity="1.000000" fill-rule="nonzero"/>
		<path d="M466.27 105.75C466.19 105.75 466.19 105.67 466.11 105.67L466.51 106.15C466.51 106.07 466.43 106.07 466.43 105.99L466.67 106.55C466.67 106.47 466.67 106.47 466.59 106.39L466.67 107.03C466.67 106.95 466.67 106.87 466.67 106.79L466.59 107.43C466.59 107.35 466.67 107.27 466.67 107.19L466.43 107.75C466.43 107.67 466.51 107.67 466.51 107.59L466.11 108.08C466.19 108 466.27 107.92 466.27 107.92L465.79 108.32C465.87 108.24 466.03 108.16 466.11 108.16L465.55 108.4C465.71 108.32 465.87 108.32 466.03 108.32L465.39 108.4C466.19 108.32 466.99 108.32 467.88 108.32C468.68 108.32 469.41 108.32 470.21 108.4L469.57 108.32C469.81 108.4 470.13 108.4 470.37 108.56L469.81 108.32C469.97 108.4 470.13 108.48 470.29 108.64L469.81 108.24C469.97 108.32 470.05 108.48 470.13 108.56L469.73 108.08C469.81 108.24 469.89 108.4 469.97 108.56L469.73 108C469.81 108.16 469.81 108.24 469.81 108.4L469.73 107.75C469.73 107.92 469.73 108 469.73 108.16L469.81 107.51C469.81 107.59 469.81 107.67 469.73 107.75L469.97 107.19C469.97 107.27 469.89 107.35 469.81 107.43C469.16 108.64 469.49 110.08 470.69 110.81C471.9 111.45 473.34 111.05 474.07 109.92C475.03 108.32 474.71 106.23 473.26 104.94C471.98 103.74 470.29 103.58 468.6 103.58L466.51 103.58C465.71 103.58 464.98 103.66 464.18 103.82C463.05 104.14 462.09 105.1 461.77 106.23C461.45 107.35 461.77 108.64 462.65 109.44C463.13 109.84 463.7 110.17 464.42 110.17C465.71 110.17 466.83 109.04 466.83 107.75C466.83 107.11 466.59 106.47 466.11 106.07L466.27 105.75Z" fill="#153A23" fill-opacity="1.000000" fill-rule="nonzero"/>
		<path d="M253.71 416.57C251.94 418.01 252.59 421.07 254.52 422.11C256.12 423.08 257.97 422.67 259.66 422.51L261.99 422.27C262.88 422.27 263.76 422.11 264.65 421.95C266.09 421.55 267.06 420.34 267.06 418.9C267.06 418.17 267.06 417.37 267.06 416.65C267.06 415.28 265.93 414.24 264.65 414.24C263.28 414.24 262.23 415.36 262.23 416.65L262.23 418.25C262.23 418.42 262.23 418.58 262.23 418.66C262.23 418.98 262.23 418.58 262.32 418.42L263.12 417.37C263.52 417.21 263.6 417.21 263.44 417.21C263.28 417.21 264.08 417.13 263.68 417.21C262.56 417.29 261.35 417.45 260.22 417.53C259.18 417.69 258.05 417.77 257.01 417.85C256.93 417.85 256.85 417.85 256.69 417.85C257.09 417.93 257.17 417.93 257.01 417.85L256.85 417.85C256.61 417.85 257.25 418.17 256.93 417.93C256.93 417.93 257.41 418.33 257.17 418.09C257.41 418.42 257.49 418.5 257.41 418.33C257.33 418.25 257.41 418.25 257.49 418.5C257.57 418.74 257.57 418.74 257.57 418.66C257.57 418.58 257.57 418.58 257.57 419.06C257.57 418.74 257.49 419.38 257.49 419.38C257.41 419.62 257.33 419.78 257.17 419.94C257.01 420.1 257.01 420.18 257.09 420.02C258.05 419.06 258.05 417.53 257.09 416.57C256.21 415.68 254.68 415.68 253.71 416.57Z" fill="#153A23" fill-opacity="1.000000" fill-rule="nonzero"/>
		<path d="M288.68 421.47L293.35 421.47C293.83 421.47 294.39 421.47 294.87 421.31C295.76 421.07 296.48 420.42 296.8 419.62C297.04 418.66 297.12 417.61 297.04 416.57C297.04 415.92 296.8 415.28 296.32 414.8C295.44 413.83 293.91 413.75 292.94 414.72C292.46 415.2 292.14 415.84 292.22 416.57C292.22 417.21 292.22 417.85 292.22 418.5L292.3 417.85C292.3 417.93 292.3 417.93 292.3 418.01L292.54 417.45L292.54 417.53L292.94 417.05C292.94 417.13 292.86 417.13 292.86 417.13L293.35 416.73C293.35 416.73 293.27 416.81 293.19 416.81L293.75 416.57C293.67 416.57 293.59 416.57 293.51 416.65L294.15 416.57C293.27 416.65 292.38 416.57 291.5 416.57L288.76 416.57C288.12 416.57 287.48 416.81 287.07 417.29C286.59 417.77 286.35 418.33 286.35 419.06C286.35 420.26 287.4 421.39 288.68 421.47Z" fill="#153A23" fill-opacity="1.000000" fill-rule="nonzero"/>
		<path d="M287 408.53C289.41 410.3 291.82 412.39 294.15 414.4C294.63 414.88 295.44 414.88 295.92 414.4C296.4 413.92 296.4 413.11 295.92 412.63C293.43 410.46 290.85 408.37 288.28 406.36C287.72 406.04 286.92 406.2 286.59 406.76C286.27 407.41 286.43 408.13 287 408.53Z" fill="#227B3D" fill-opacity="1.000000" fill-rule="nonzero"/>
		<path d="M281.85 411.1C283.78 412.87 285.87 414.48 288.04 416C288.6 416.33 289.41 416.17 289.73 415.6C290.05 415.04 289.89 414.32 289.33 413.92C288.84 413.59 288.28 413.19 287.8 412.87C287.56 412.71 287.32 412.47 287.07 412.31L287 412.23L286.92 412.15L286.51 411.83C285.55 411.02 284.58 410.22 283.7 409.42C283.22 408.93 282.41 408.93 282.01 409.42C281.61 409.9 281.37 410.62 281.85 411.1Z" fill="#227B3D" fill-opacity="1.000000" fill-rule="nonzero"/>
		<path d="M425.27 113.7L430.82 125.11C431.14 125.67 431.94 125.92 432.51 125.59C433.07 125.27 433.31 124.47 432.91 123.91L427.36 112.58C427.04 112.01 426.23 111.77 425.67 112.17C425.11 112.42 424.95 113.14 425.27 113.7Z" fill="#227B3D" fill-opacity="1.000000" fill-rule="nonzero"/>
		<path d="M431.38 111.69C432.02 113.38 432.83 114.99 433.71 116.51C434.68 118.28 435.64 119.97 436.44 121.82C436.77 122.38 437.57 122.62 438.13 122.22C438.7 121.9 438.94 121.09 438.53 120.53C437.73 118.76 436.77 117.08 435.88 115.39C435.48 114.58 435 113.78 434.6 112.9C434.43 112.5 434.19 112.09 434.03 111.77L433.95 111.53C433.79 111.21 434.03 111.61 433.95 111.45C433.87 111.29 433.79 111.13 433.79 110.97C433.63 110.33 432.91 109.92 432.26 110.08C431.62 110.33 431.22 111.05 431.38 111.69Z" fill="#227B3D" fill-opacity="1.000000" fill-rule="nonzero"/>
		<path d="M268.02 38.81C274.45 31.25 281.53 24.18 289.01 17.67C290.21 16.63 288.44 14.94 287.32 15.99C279.76 22.5 272.77 29.65 266.33 37.2C265.29 38.33 266.98 40.09 268.02 38.81Z" fill="#EFB086" fill-opacity="1.000000" fill-rule="nonzero"/>
		<path d="M273.17 41.46C278.63 36.08 283.86 30.37 289.57 25.31C290.77 24.26 289.01 22.5 287.8 23.62C282.09 28.76 276.87 34.39 271.4 39.85C270.27 40.82 272.04 42.58 273.17 41.46Z" fill="#EFB086" fill-opacity="1.000000" fill-rule="nonzero"/>
		<path d="M89.47 291.29C85.77 294.82 86.66 302.22 93.01 300.45C102.33 297.8 95.82 285.26 89.47 291.29Z" fill="#FFFFFF" fill-opacity="1.000000" fill-rule="nonzero"/>
		<path d="M116.81 81.88C114.96 83.65 115.44 87.34 118.57 86.46C123.32 85.17 120.02 78.91 116.81 81.88Z" fill="#FFFFFF" fill-opacity="1.000000" fill-rule="nonzero"/>
		<path d="M274.29 111.61C275.34 107.83 276.71 104.14 278.31 100.52C278.55 99.96 279.12 99.32 279.6 99.56C280.08 99.8 280.08 100.52 279.92 101C279.12 104.38 278.31 107.83 277.51 111.21C280.72 110.89 283.86 111.37 286.83 112.66C287.07 112.74 287.24 113.06 287.07 113.3C287.07 113.38 287 113.46 286.92 113.54C285.15 114.67 283.06 115.23 280.97 115.15C280.24 115.07 279.36 114.99 278.79 115.55C278.47 115.95 278.31 116.35 278.23 116.83C277.51 119.81 276.46 122.62 275.02 125.27C274.86 125.51 274.53 125.67 274.21 125.51C274.05 125.43 273.97 125.27 273.97 125.11C273.41 122.46 274.53 119.49 274.45 116.67C274.45 116.35 274.37 116.03 274.21 115.79C273.97 115.47 273.57 115.31 273.17 115.31C270.19 114.67 267.22 113.78 264.41 112.66C263.6 112.33 262.72 111.53 263.28 110.89C263.44 110.73 263.68 110.65 264 110.57C265.77 110.25 267.62 110.25 269.39 110.57L274.29 111.61Z" fill="#FFFFFF" fill-opacity="1.000000" fill-rule="nonzero"/>
		<path d="M300.98 78.02C298.09 80.75 298.81 86.54 303.8 85.17C311.11 83.08 305.97 73.36 300.98 78.02Z" fill="#FFFFFF" fill-opacity="1.000000" fill-rule="nonzero"/>
		<path d="M362.48 358.07C358.79 361.6 359.67 369 366.02 367.23C375.43 364.58 368.83 352.04 362.48 358.07Z" fill="#FFFFFF" fill-opacity="1.000000" fill-rule="nonzero"/>
		<path d="M376.39 324.32C374.54 326.08 375.02 329.78 378.16 328.9C382.9 327.61 379.61 321.34 376.39 324.32Z" fill="#FFFFFF" fill-opacity="1.000000" fill-rule="nonzero"/>
		<path d="M410.64 330.02C408.95 325.2 407.66 320.3 406.7 315.32C406.54 314.51 406.62 313.47 407.42 313.31C408.23 313.15 408.63 313.95 408.87 314.67C410.48 318.85 412.17 323.11 413.77 327.29C416.91 324.64 420.69 322.79 424.71 321.91C425.03 321.82 425.43 322.07 425.43 322.39C425.43 322.55 425.43 322.63 425.35 322.79C424.31 325.28 422.54 327.37 420.21 328.82C419.4 329.3 418.44 329.86 418.2 330.83C418.12 331.47 418.28 332.11 418.52 332.67C419.96 336.29 420.85 340.15 421.33 344C421.33 344.41 421.09 344.81 420.69 344.81C420.45 344.81 420.29 344.73 420.12 344.65C417.55 342.32 416.59 338.22 414.5 335.33C414.26 335 413.93 334.68 413.61 334.52C413.13 334.44 412.57 334.52 412.17 334.76C408.55 336.21 404.77 337.5 400.91 338.38C399.87 338.62 398.26 338.38 398.42 337.33C398.5 337.01 398.66 336.77 398.9 336.53C400.51 334.84 402.44 333.56 404.61 332.59L410.64 330.02Z" fill="#FFFFFF" fill-opacity="1.000000" fill-rule="nonzero"/>
		<path d="M429.77 295.31C427.92 297.07 428.41 300.77 431.54 299.89C436.28 298.52 432.99 292.33 429.77 295.31Z" fill="#FFFFFF" fill-opacity="1.000000" fill-rule="nonzero"/>
		<path d="M79.82 335.25C80.15 331.63 80.79 328.09 81.59 324.64C81.75 324.07 82.08 323.43 82.64 323.59C83.2 323.75 83.2 324.4 83.2 324.88C83.04 328.09 82.88 331.31 82.64 334.44C85.45 333.64 88.43 333.56 91.32 334.2C91.56 334.28 91.72 334.44 91.72 334.68C91.72 334.76 91.64 334.92 91.56 335C90.2 336.29 88.35 337.17 86.5 337.42C85.77 337.42 85.13 337.66 84.65 338.14C84.41 338.54 84.33 338.94 84.33 339.42C84.17 342.16 83.68 344.89 82.8 347.46C82.72 347.7 82.4 347.86 82.16 347.78C81.99 347.7 81.91 347.62 81.83 347.46C80.87 345.21 81.43 342.32 80.95 339.83C80.95 339.5 80.79 339.26 80.63 339.02C80.31 338.78 79.99 338.7 79.58 338.7C76.77 338.62 74.04 338.3 71.22 337.82C70.5 337.66 69.53 337.01 69.94 336.45C70.1 336.29 70.26 336.13 70.5 336.05C72.03 335.49 73.71 335.17 75.32 335.25L79.82 335.25Z" fill="#FFFFFF" fill-opacity="1.000000" fill-rule="nonzero"/>
	</g>
</svg>
