<svg width="153.000000" height="58.000000" viewBox="0 0 153 58" fill="none" xmlns="http://www.w3.org/2000/svg" xmlns:xlink="http://www.w3.org/1999/xlink">
	<desc>
			Created with Pixso.
	</desc>
	<defs>
		<clipPath id="clip1_6">
			<rect width="153.000000" height="58.000000" fill="white" fill-opacity="0"/>
		</clipPath>
	</defs>
	<g clip-path="url(#clip1_6)">
		<path d="M12.24 28.36C12.24 20.07 17.62 13.94 25.62 13.94C31.95 13.94 37.09 17.79 37.09 21.63C37.09 23.25 36.01 24.34 34.22 24.34C29.86 24.34 30.04 16.4 24.31 16.4C21.08 16.4 18.15 19.59 18.15 24.7C18.15 32.75 22.87 38.04 27.77 38.04C31.83 38.04 34.16 35.1 35.42 32.93C36.07 32.09 37.51 32.33 37.33 33.59C36.91 38.7 33.21 43.51 25.98 43.51C18.33 43.51 12.24 36.18 12.24 28.36Z" fill="#FBFAF7" fill-opacity="1.000000" fill-rule="nonzero"/>
		<path d="M39.3 42.43L39.3 42.25C39.3 41.23 40.85 40.93 40.85 39.18L40.85 19.23C40.85 17.43 39.3 17 39.3 16.16L39.3 15.98C39.3 15.56 39.6 15.38 40.07 15.14L45.15 12.62C46.23 12.08 46.82 12.68 46.82 13.34L46.82 39.12C46.82 40.81 48.56 41.17 48.56 42.19L48.56 42.37C48.56 42.79 48.14 43.09 47.6 43.09L40.25 43.09C39.66 43.09 39.3 42.85 39.3 42.43Z" fill="#FBFAF7" fill-opacity="1.000000" fill-rule="nonzero"/>
		<path d="M68.57 37.38C68.33 39.72 65.58 43.51 60.38 43.51C54.77 43.51 50.65 39.42 50.65 33.17C50.53 27.82 54.71 23.32 60.08 23.2C60.2 23.2 60.32 23.2 60.38 23.2C65.64 23.2 68.03 26.26 68.03 28.97C68.09 30.17 67.37 31.25 66.24 31.67L57.28 35.76C58.17 37.92 60.26 39.3 62.59 39.3C64.44 39.36 66.18 38.46 67.19 36.96C67.67 36.36 68.57 36.54 68.57 37.38ZM56.2 30.41C56.2 31.61 56.32 32.75 56.62 33.89L61.82 31.25C62.53 30.89 62.95 30.11 62.89 29.33C62.89 27.88 61.82 25 59.67 25C57.52 25 56.2 27.34 56.2 30.41Z" fill="#FBFAF7" fill-opacity="1.000000" fill-rule="nonzero"/>
		<path d="M86.6 26.92C86.6 28.6 85.95 30.11 84.04 30.11C80.87 30.11 82.3 26.62 80.09 26.62C78.54 26.62 77.94 28.84 77.94 31.07L77.94 39.18C77.94 40.87 79.97 41.23 79.97 42.25L79.97 42.43C79.97 42.91 79.62 43.15 79.08 43.15L71.67 43.15C71.07 43.15 70.72 42.91 70.72 42.43L70.72 42.25C70.72 41.23 72.27 40.93 72.27 39.18L72.27 29.75C72.27 27.94 70.42 27.82 70.42 26.8L70.42 26.62C70.42 26.2 70.72 25.9 71.25 25.66L76.09 23.38C76.99 22.95 77.41 23.44 77.41 24.22L77.41 27.28C78.3 24.7 80.21 23.25 82.9 23.25C84.81 23.13 86.48 24.64 86.6 26.56C86.6 26.68 86.6 26.8 86.6 26.92Z" fill="#FBFAF7" fill-opacity="1.000000" fill-rule="nonzero"/>
		<path d="M110.26 42.31L110.26 42.43C110.26 42.91 109.96 43.15 109.42 43.15L101.9 43.15C101.48 43.21 101.12 42.91 101.12 42.49L101.12 42.43L101.12 42.37C101.12 41.35 102.61 41.11 101.96 40.14L97.6 33.95L95.21 36.18L95.21 39.24C95.21 40.93 96.94 41.29 96.94 42.31L96.94 42.49C96.94 42.91 96.58 43.21 95.98 43.21L88.58 43.21C88.04 43.21 87.68 42.91 87.68 42.49L87.68 42.31C87.68 41.29 89.23 40.99 89.23 39.24L89.23 19.23C89.23 17.43 87.44 17 87.44 16.16L87.44 15.98C87.44 15.56 87.74 15.38 88.28 15.14L93.65 12.62C94.61 12.14 95.27 12.68 95.27 13.34L95.27 33.05L101.66 27.52C102.85 26.5 100.7 25.48 100.7 24.52L100.7 24.34C100.7 23.92 101 23.62 101.54 23.62L107.27 23.62C107.75 23.62 108.11 23.86 108.11 24.28L108.11 24.46C108.11 25.48 106.14 26.14 104.64 27.46L101.36 30.53L108.11 40.08C108.77 40.99 110.26 41.35 110.26 42.31Z" fill="#FBFAF7" fill-opacity="1.000000" fill-rule="nonzero"/>
		<path d="M110.26 38.76C110.26 37.2 111.33 36.54 112.65 36.54C116.17 36.54 114.8 41.89 118.86 41.89C120.53 41.89 121.79 41.05 121.79 39.18C121.79 33.77 110.56 37.14 110.56 29.15C110.56 25.72 113.9 23.2 118.74 23.2C123.82 23.2 127.04 25.54 127.04 28.06C126.98 29.27 125.97 30.23 124.83 30.17C121.49 30.17 122.68 24.88 119.16 24.88C117.72 24.82 116.53 25.96 116.53 27.4C116.53 27.46 116.53 27.52 116.53 27.58C116.53 33.11 127.52 29.87 127.52 37.62C127.52 40.93 124.29 43.45 118.92 43.45C113.66 43.45 110.26 41.29 110.26 38.76Z" fill="#FBFAF7" fill-opacity="1.000000" fill-rule="nonzero"/>
		<path d="M150.34 24.28L150.34 24.46C150.34 25.48 149.08 25.84 148.31 27.64L140.66 44.35C139.35 47.24 136 54.39 131.82 54.39C128.18 54.39 125.91 52.17 125.91 50.06C125.85 48.8 126.8 47.72 128.06 47.66C128.18 47.66 128.24 47.66 128.36 47.66C131.64 47.66 130.63 52.53 132.72 52.53C134.15 52.53 137.02 47.06 138.15 44.29L130.09 27.64C129.19 25.84 127.94 25.48 127.94 24.46L127.94 24.28C127.94 23.86 128.3 23.62 128.77 23.62L136.3 23.62C136.66 23.56 137.02 23.86 137.08 24.28L137.08 24.34L137.08 24.52C137.08 25.54 135.58 25.66 136.48 27.76L141.2 38.76L145.56 28.36C146.63 25.84 143.77 25.54 143.77 24.58L143.77 24.4C143.77 23.98 144.07 23.68 144.6 23.68L149.5 23.68C149.98 23.62 150.34 23.92 150.34 24.28Z" fill="#FBFAF7" fill-opacity="1.000000" fill-rule="nonzero"/>
		<path d="M6.33 25.66C6.39 25.72 6.33 25.84 6.27 25.9C6.21 25.96 6.09 25.9 6.03 25.84C4.83 24.16 2.5 20.01 2.68 13.1C2.68 11.05 3.1 9.01 3.88 7.09C4.53 5.52 6.33 2.94 8.36 3.78C10.39 4.62 7.58 7.75 6.98 8.65C3.52 13.88 4.36 20.07 6.33 25.66Z" fill="#FDBC4E" fill-opacity="1.000000" fill-rule="nonzero"/>
		<path d="M7.46 22.47C7.46 22.53 7.4 22.53 7.34 22.53C7.28 22.53 7.28 22.47 7.28 22.47C7.04 20.01 6.92 14.6 9.19 9.85C10.27 7.51 11.94 5.46 14.03 3.96C14.81 3.42 15.7 3.12 16.66 3.12C17.79 3.24 18.69 4.26 18.15 5.4C17.32 7.15 15.05 7.39 13.61 8.47C11.76 9.85 10.45 11.96 9.55 14.06C8.48 16.7 7.76 19.59 7.46 22.47Z" fill="#FDBC4E" fill-opacity="1.000000" fill-rule="nonzero"/>
		<path d="M9.73 21.21C9.73 20.73 9.79 20.25 9.91 19.83C10.39 18.15 11.05 16.52 11.94 15.02C14.33 10.99 17.79 7.45 22.39 6.37C23.77 6.01 28.25 6.01 26.81 8.65C25.86 10.33 23.11 9.61 21.56 9.91C18.57 10.51 16.18 12.38 14.09 14.48C11.82 16.82 9.85 21.27 9.73 21.21Z" fill="#FDBC4E" fill-opacity="1.000000" fill-rule="nonzero"/>
	</g>
</svg>
