<svg width="492.000000" height="510.000000" viewBox="0 0 492 510" fill="none" xmlns="http://www.w3.org/2000/svg" xmlns:xlink="http://www.w3.org/1999/xlink">
	<desc>
			Created with Pixso.
	</desc>
	<defs>
		<clipPath id="clip1_263">
			<rect width="492.000000" height="510.000000" fill="white" fill-opacity="0"/>
		</clipPath>
	</defs>
	<g clip-path="url(#clip1_263)">
		<path d="M316.83 479.8C170.06 518.72 88.97 486.01 66.78 464.8C-32.46 369.96 5.57 267.73 21.67 240.21C42.91 203.88 82.83 149.31 106.31 111.62C167.64 6.47 251.7 3.04 286.09 14.52C437.34 45.03 484.15 173.65 488.64 234.15C509.72 396.09 382.85 465.39 316.83 479.8Z" fill="#F7BC28" fill-opacity="1.000000" fill-rule="nonzero"/>
		<path d="M190.59 207.69C167.04 209.26 143.39 208.56 119.97 205.63C108.02 204.12 93.13 199.08 93.88 189.27C94.55 180.62 107.02 176.46 117.4 174.41C198.61 158.75 281.67 155.01 363.96 163.31C377.79 164.7 392.66 166.89 402.25 175.1C406.26 178.51 409.15 183.45 407.37 187.96C405.31 193.25 398.02 195.73 391.51 197.43C348.85 208.47 304.91 213.8 260.85 213.27L190.59 207.69Z" fill="#153A23" fill-opacity="1.000000" fill-rule="nonzero"/>
		<path d="M203.12 153.96C225.2 149.47 247.66 144.99 270.11 146.91C292.56 148.83 315.37 158.19 328.58 176.47C343.15 196.69 343.63 223.86 354.89 246.09C361.79 259.75 373.01 272.57 372.25 287.78C371.15 309.99 346.29 322.17 324.91 328.27C271.86 343.4 216.84 350.41 161.69 349.08C155.77 348.94 149.64 348.65 144.3 346.07C134.84 341.56 129.8 330.55 129.5 320.11C129.19 309.66 132.72 299.44 136.42 289.62C152.51 247.04 172.52 206.04 196.2 167.15L203.12 153.96Z" fill="#FAC7B7" fill-opacity="1.000000" fill-rule="nonzero"/>
		<path d="M213.12 171.35C203.37 199.61 199.43 229.55 201.54 259.37C202.56 273.74 205.17 288.51 212.86 300.16C217.61 307.34 224.25 313.06 232.05 316.7C239.85 320.34 248.5 321.76 257.05 320.8C273.7 318.74 288.95 307.48 298.16 292.03C311.63 269.45 312.22 240.54 310.41 213.58C308.79 189.6 303.42 162.13 284.07 151.12C268.85 142.47 250.48 147.35 233.99 152.45L213.12 171.35Z" fill="#B26D55" fill-opacity="1.000000" fill-rule="nonzero"/>
		<path d="M189.73 230.05C212.63 230.14 238.83 219.68 244.59 214.18C261.97 197.58 263.63 171.47 263.11 148.64L208.77 159.9L190.12 194.92C190.12 194.92 189.72 230.05 189.73 230.05Z" fill="#FAC7B7" fill-opacity="1.000000" fill-rule="nonzero"/>
		<path d="M255.34 159.02C255.34 159.02 274.06 206.4 322.81 215.88L315.12 187.45L298.44 159.02L255.34 159.02Z" fill="#FAC7B7" fill-opacity="1.000000" fill-rule="nonzero"/>
		<path d="M89.99 499.46C80.66 469.42 93.11 425.27 115.16 402.86C137.21 380.45 167.41 367.84 197.83 359.89C235.01 350.17 274.69 346.66 311.73 356.72C327.23 360.92 342.05 367.43 356.14 375.19C378.3 387.42 399.48 403.75 410.21 426.67C422.41 452.78 419.29 467.67 414.89 496.14L89.99 499.46Z" fill="#39B55D" fill-opacity="1.000000" fill-rule="nonzero"/>
		<path d="M279.04 211.83C278.41 211.73 277.77 211.83 277.21 212.13C276.65 212.42 276.2 212.89 275.92 213.47C275.79 213.76 275.65 214.04 275.54 214.32C275.17 215.29 275.21 216.61 276.13 217.09C276.51 217.25 276.93 217.33 277.35 217.3C281.67 217.4 285.96 217.98 290.16 219.01C292.3 219.52 294.41 220.15 296.49 220.89C297.01 221.08 298.92 222.15 299.41 221.97C300.26 221.65 299.84 220.08 299.49 219.53C298.94 218.82 298.24 218.23 297.44 217.82L297.22 217.69C292.97 215.08 288.24 213.34 283.31 212.56L279.04 211.83Z" fill="#FAC7B7" fill-opacity="1.000000" fill-rule="nonzero"/>
		<path d="M226.16 160.01C209.29 161.18 204.73 175.72 198.75 189.34C192.07 204.55 180.28 220.84 172.18 235.32C164.25 249.48 156.37 263.75 150.36 278.88C147.35 286.34 144.93 294.03 143.12 301.87C141.56 308.82 141.86 310.5 140.92 317.66C139.86 325.82 140.21 335.37 148.39 336.88C156.56 338.4 171.19 338 179.21 339.08C180.71 339.28 181.37 336.98 179.85 336.77C168.23 335.22 148.97 340.19 144.36 325.28C142.24 318.44 143.64 310.89 145.09 304.06C146.64 296.7 162.41 268.65 165.07 261.62C175.95 232.86 184.08 228.12 197.2 200.42C204.03 185.9 206.9 163.76 226.16 162.42C227.68 162.32 227.7 159.93 226.16 160.03L226.16 160.01Z" fill="#FFFFFF" fill-opacity="1.000000" fill-rule="nonzero"/>
		<path d="M213.97 333.53C206.54 332.84 194.2 330.84 187.3 328.01C181.27 325.53 174.62 322.03 171.18 316.21C165.3 306.3 166.27 290.72 174.17 282.12C175.2 281 175.57 278.25 174.53 279.38C167.7 286.82 164.08 294.99 165.3 304.76C166.15 311.33 165.84 317.75 169.37 321.12C173.7 325.28 182.51 328.74 188.06 330.87C194.78 333.43 203.79 334.36 210.93 335.02C212.46 335.16 220.32 333.67 218.78 333.53L213.97 333.53Z" fill="#FFFFFF" fill-opacity="1.000000" fill-rule="nonzero"/>
		<path d="M189.35 265.43C185.82 275.03 181.86 290.85 184.09 298.69C185.39 303.25 194.07 310.13 201 315.91C202.18 316.89 204.75 317.61 203.56 316.6C196.96 311.11 189.67 305.03 187.34 296.39C184.78 286.62 187.53 273.8 190.91 264.62C191.44 263.18 189.84 264 189.31 265.43L189.35 265.43Z" fill="#FFFFFF" fill-opacity="1.000000" fill-rule="nonzero"/>
		<path d="M196.36 220.04C204.9 218.78 213 215.65 220.89 212.18C228.18 208.96 239.87 203.53 245.66 197.96C251.45 192.39 252.78 182.9 255.34 175.4C258.16 167.3 257.7 162.82 257.76 154.26C257.76 152.72 256.05 148.56 256.05 150.1C256.05 174.17 250.85 187.98 239.07 198.75C233.51 203.87 226.5 207.09 219.66 210.11C211.98 213.53 204.06 216.51 195.7 217.74C194.18 217.96 194.84 220.3 196.33 220.04L196.36 220.04Z" fill="#FFFFFF" fill-opacity="1.000000" fill-rule="nonzero"/>
		<path d="M212.34 194.14C214.38 186.58 223.76 178.94 229.18 173.19C235.07 166.95 236.36 164.84 243.52 160.15C244.81 159.3 243.62 157.25 242.32 158.09C234.63 163.11 227.22 168.89 221.05 175.69C215.57 181.73 212.09 188.16 211.62 192.09C211.43 193.62 210.64 197.61 211.62 197.96L212.34 194.14Z" fill="#FFFFFF" fill-opacity="1.000000" fill-rule="nonzero"/>
		<path d="M231.95 186.77C239.47 177.23 247.98 165.41 246.69 157.72C246.44 156.23 244.6 155.57 244.39 157.09C242.72 169.05 234.87 181.01 227.6 190.23C226.67 191.43 228.64 191.03 229.59 189.82L231.95 186.77Z" fill="#FFFFFF" fill-opacity="1.000000" fill-rule="nonzero"/>
		<path d="M328.21 216.17C301.19 208.97 279.54 186.01 273.92 158.63L272.76 160.14C289.94 158.56 305.03 169.41 314.86 182.63C326.17 197.84 330.79 216.7 336.94 234.31C340.2 243.32 344.02 252.12 348.38 260.66C352.61 269.14 356.92 278.44 355.81 288.18C353.93 304.45 337.63 313.71 323.7 318.69C302.29 326.38 279.05 329.72 256.38 329.92C254.84 329.92 251.25 333.54 252.81 333.53C274.51 333.33 293.34 330.78 314.04 324.22C328.23 319.71 352.47 308.48 358.1 293.61C361.43 284.84 361.78 277.13 358.33 268.7C354.42 259.16 345.45 250.14 341.74 240.51C334.59 221.87 327.22 193.48 322.1 187.46C310.14 173.43 292.21 155.97 272.79 157.76C272.61 157.76 272.43 157.81 272.27 157.89C272.1 157.98 271.96 158.09 271.85 158.24C271.74 158.38 271.66 158.55 271.63 158.73C271.59 158.91 271.59 159.09 271.64 159.27C279.81 198.51 299.82 211.08 327.61 218.49C327.91 218.57 328.23 218.52 328.51 218.36C328.78 218.21 328.97 217.95 329.06 217.65C329.14 217.34 329.1 217.02 328.95 216.75C328.8 216.47 328.54 216.27 328.24 216.18L328.21 216.17Z" fill="#FFFFFF" fill-opacity="1.000000" fill-rule="nonzero"/>
		<path d="M252.35 322.13C269.25 323.56 296.46 321.97 312.6 316.01C325.67 311.17 328.59 304 334.34 290.95C337.57 283.62 339.79 284.32 334.18 267.88C333.69 266.43 331.2 265.93 331.99 267.25C339.68 280.12 329.69 297.61 319.72 305.84C308.47 315.13 293.98 319.25 279.64 320.3C270.54 320.84 261.42 320.66 252.35 319.76C250.82 319.63 250.83 322.02 252.35 322.15L252.35 322.13Z" fill="#FFFFFF" fill-opacity="1.000000" fill-rule="nonzero"/>
		<path d="M343.8 295.75C350.73 286.72 348.16 280.57 345.67 269.76C342.75 257.09 335.2 246.08 328.27 235.32C327.41 234.03 325.36 235.22 326.2 236.52C332.78 246.73 339.86 257.02 343.01 268.98C345.82 279.6 346.54 288.3 340.49 299.25C339.74 300.59 339.34 302.91 340.26 301.7L343.8 295.75Z" fill="#FFFFFF" fill-opacity="1.000000" fill-rule="nonzero"/>
		<path d="M295.48 303.22C306.14 300.14 315.7 286.65 320 276.6C325.29 264.27 319.15 256.99 316.18 244.19C315.83 242.7 313.53 243.34 313.88 244.83C316.69 256.89 317.47 270 312.71 281.7C308.79 291.36 300.3 297.85 290.83 302.55C289.83 303.24 288.91 304.03 288.09 304.91L295.48 303.22Z" fill="#FFFFFF" fill-opacity="1.000000" fill-rule="nonzero"/>
		<path d="M290.93 178.63C296.05 180.16 299.93 183.98 303.56 187.74C307.32 191.64 315.9 201.92 319.07 206.31C325.25 214.85 325.17 218.09 328.89 227.96C329.43 229.39 331.74 228.76 331.2 227.32C327.25 216.74 321.84 206.77 315.12 197.69C311.84 193.28 312.05 191.36 308.21 187.44C304.51 183.68 299.6 179.75 294.45 178.19C292.97 177.75 289.49 178.19 290.96 178.63L290.93 178.63Z" fill="#FFFFFF" fill-opacity="1.000000" fill-rule="nonzero"/>
		<path d="M205.81 228.62C195.56 230.28 191.91 230.17 182.54 234.91C175.82 238.32 168.76 243.25 167.66 250.71C166.26 260.3 175.89 268.29 185.4 270.15C194.91 272 204.76 269.91 214.44 270.69L205.81 228.62Z" fill="#B26D55" fill-opacity="1.000000" fill-rule="nonzero"/>
		<path d="M307.69 213.31C316.36 212.44 325.12 213.59 333.27 216.65C341.4 219.72 348.3 227.94 346.82 236.51C345.24 245.72 335.46 250.86 326.64 253.95C318.38 256.86 309.92 259.2 301.34 260.97L307.69 213.31Z" fill="#B26D55" fill-opacity="1.000000" fill-rule="nonzero"/>
		<path d="M234.65 317L241.68 353.67L263.19 353.67L270.98 306.19L234.65 317Z" fill="#B26D55" fill-opacity="1.000000" fill-rule="nonzero"/>
		<path d="M207.33 368.56C206.56 359.57 207.82 350.53 211 342.09C211.27 341.17 211.79 340.34 212.49 339.69C213.51 339.07 214.71 338.8 215.9 338.92C240.05 338.92 262.29 336.93 286.43 336.88C289.57 336.88 294.7 338.8 297.64 339.92C302.76 341.85 306.18 346.92 307.53 352.21C308.88 357.49 308.58 363.06 308.24 368.52L207.33 368.56Z" fill="#39B55D" fill-opacity="1.000000" fill-rule="nonzero"/>
		<path d="M213.61 284.95C213.46 285.09 213.27 285.16 213.07 285.16C212.88 285.16 212.69 285.09 212.54 284.95C210.09 282.8 207.25 281.12 204.7 279.07C201.97 276.86 199.49 274.03 198.88 270.53C197.72 264.04 204.36 259.65 209.75 263.82C211.22 265.05 212.5 266.49 213.56 268.09C213.58 268.13 213.61 268.16 213.65 268.17C213.69 268.19 213.74 268.19 213.78 268.18C213.82 268.16 213.86 268.13 213.88 268.1C213.9 268.06 213.91 268.01 213.91 267.97C213.83 267.05 213.93 266.12 214.21 265.24C214.5 264.36 214.95 263.55 215.55 262.85C217.6 260.4 221.91 258.33 225.19 258.93C229.81 259.79 229.7 265.11 228.43 268.61C226.9 272.83 222.56 276.54 219.37 279.52L213.61 284.95Z" fill="#F1673C" fill-opacity="1.000000" fill-rule="nonzero"/>
		<path d="M298.15 281.01C297.99 281.13 297.79 281.18 297.6 281.16C297.4 281.14 297.22 281.04 297.09 280.89C294.91 278.47 292.27 276.49 289.98 274.15C287.52 271.64 285.39 268.53 285.17 265.03C284.77 258.45 291.87 254.85 296.74 259.61C298.06 261 299.17 262.57 300.03 264.29C300.05 264.32 300.09 264.35 300.12 264.37C300.16 264.39 300.21 264.39 300.25 264.38C300.29 264.37 300.33 264.35 300.35 264.32C300.38 264.29 300.4 264.25 300.4 264.2C300.43 263.28 300.64 262.38 301.02 261.54C301.41 260.7 301.95 259.94 302.63 259.32C304.93 257.12 309.46 255.56 312.65 256.54C317.14 257.92 316.41 263.19 314.76 266.52C312.75 270.54 308.01 273.74 304.51 276.32L298.15 281.01Z" fill="#F1673C" fill-opacity="1.000000" fill-rule="nonzero"/>
		<path d="M268.02 293.53C272.08 291.83 275.75 289.32 278.81 286.15C281.86 282.98 284.23 279.22 285.77 275.09C285.89 274.87 285.95 274.62 285.96 274.36C285.96 274.11 285.91 273.85 285.81 273.62C285.7 273.39 285.55 273.18 285.35 273.02C285.16 272.85 284.93 272.73 284.69 272.67C284.44 272.6 284.18 272.59 283.93 272.64C283.68 272.69 283.44 272.79 283.24 272.94C283.03 273.09 282.86 273.29 282.74 273.51C282.62 273.74 282.55 273.99 282.54 274.24C281.19 277.82 279.13 281.08 276.49 283.85C273.85 286.61 270.68 288.82 267.17 290.33C266.75 290.46 266.39 290.74 266.17 291.13C265.95 291.51 265.89 291.96 266 292.39C266.13 292.81 266.41 293.17 266.79 293.39C267.18 293.61 267.63 293.67 268.06 293.56L268.02 293.53Z" fill="#010101" fill-opacity="1.000000" fill-rule="nonzero"/>
		<path d="M269.37 233.52C270.81 239.66 276.62 244.86 283.17 243.36C289.26 241.98 291.89 235.51 293.64 230.22L291.21 231.22L303.11 237.29C305.02 238.26 306.72 235.38 304.82 234.4L292.92 228.33C292.7 228.21 292.45 228.13 292.19 228.12C291.94 228.1 291.69 228.15 291.45 228.24C291.21 228.34 291 228.48 290.83 228.67C290.66 228.86 290.53 229.08 290.46 229.33C289.17 233.22 287.42 238.38 283.16 239.9C278.13 241.7 273.71 237.21 272.64 232.63C272.14 230.54 268.91 231.43 269.41 233.49L269.37 233.52Z" fill="#010101" fill-opacity="1.000000" fill-rule="nonzero"/>
		<path d="M288.76 237.45L289.18 237.77C289.4 237.94 289.23 237.81 289.11 237.71L289.39 237.93L290.42 238.78L292.78 240.74C294.27 241.98 295.75 243.24 297.31 244.38C297.69 244.59 298.15 244.65 298.57 244.54C299 244.42 299.37 244.15 299.6 243.77C299.81 243.39 299.87 242.93 299.76 242.51C299.65 242.08 299.38 241.71 299 241.48L298.57 241.18C298.35 241 298.53 241.13 298.65 241.23L298.36 241L297.33 240.15C296.54 239.5 295.75 238.84 294.97 238.19C293.48 236.96 292.01 235.69 290.44 234.56C290.06 234.34 289.6 234.28 289.18 234.39C288.75 234.51 288.38 234.78 288.15 235.15C287.94 235.54 287.88 235.99 288 236.42C288.11 236.85 288.38 237.21 288.76 237.44L288.76 237.45Z" fill="#010101" fill-opacity="1.000000" fill-rule="nonzero"/>
		<path d="M240.06 237.83C238.99 242.41 234.57 246.88 229.54 245.09C225.27 243.58 223.57 238.41 222.23 234.51C222.16 234.27 222.03 234.05 221.86 233.86C221.69 233.67 221.48 233.53 221.24 233.43C221.01 233.34 220.76 233.29 220.5 233.31C220.25 233.32 220 233.39 219.78 233.51L207.88 239.59C205.96 240.57 207.65 243.46 209.59 242.47L221.48 236.41L219.03 235.4C220.79 240.71 223.42 247.15 229.5 248.56C236.05 250.06 241.87 244.84 243.31 238.72C243.81 236.62 240.58 235.73 240.08 237.86L240.06 237.83Z" fill="#010101" fill-opacity="1.000000" fill-rule="nonzero"/>
		<path d="M222.21 239.77C220.64 240.9 219.18 242.17 217.69 243.4L215.32 245.36L214.3 246.21L214.04 246.41C213.94 246.49 214.39 246.15 214.09 246.41L213.66 246.73C213.28 246.96 213.01 247.32 212.9 247.75C212.79 248.18 212.85 248.63 213.06 249.02C213.29 249.39 213.66 249.66 214.08 249.78C214.51 249.89 214.96 249.83 215.35 249.61C216.91 248.48 218.39 247.21 219.87 245.98L222.24 244.02L223.27 243.17L223.51 242.97L223.93 242.66C224.24 242.4 224.44 242.04 224.5 241.65C224.57 241.25 224.49 240.85 224.29 240.5C224.08 240.16 223.77 239.89 223.39 239.76C223.01 239.62 222.6 239.63 222.22 239.77L222.21 239.77Z" fill="#010101" fill-opacity="1.000000" fill-rule="nonzero"/>
		<path d="M318.83 225.34C321.94 225.02 325.07 225.31 328.07 226.19C331.02 226.94 334.05 227.9 335.76 230.58C336.22 231.24 336.52 232.01 336.64 232.81C336.75 233.61 336.67 234.42 336.41 235.19C335.82 236.7 334.92 238.08 333.78 239.24C331.82 241.17 329.47 242.66 326.9 243.64C323.91 244.88 320.8 245.84 317.83 247.15C316.43 247.77 317.64 249.84 319.03 249.21C324.89 246.65 331.84 245.37 336.11 240.18C338.5 237.3 340 233.78 338.25 230.18C336.64 226.89 333.48 225.26 330.12 224.27C326.27 223.01 322.19 222.58 318.16 223.03C316.64 223.26 317.31 225.6 318.79 225.34L318.83 225.34Z" fill="#010101" fill-opacity="1.000000" fill-rule="nonzero"/>
		<path d="M320.96 239.09C321.89 238.86 322.79 238.52 323.64 238.07C324.8 237.53 325.89 236.85 326.9 236.06C327.39 235.73 327.8 235.31 328.11 234.81C328.43 234.31 328.63 233.75 328.72 233.17C328.8 231.59 327.36 230.67 326.08 230.15C324.21 229.5 322.24 229.15 320.26 229.1C319.95 229.1 319.65 229.23 319.42 229.45C319.2 229.67 319.08 229.98 319.08 230.29C319.09 230.6 319.21 230.89 319.43 231.11C319.65 231.33 319.94 231.46 320.25 231.47L321.26 231.56L321.84 231.62L322.07 231.62L322.35 231.62L322.52 231.62L322.86 231.67L323.42 231.77C323.83 231.85 324.23 231.94 324.62 232.06L325.13 232.23L325.33 232.31C325.08 232.22 325.39 232.31 325.42 232.31C325.46 232.31 325.72 232.46 325.86 232.54L326.06 232.68L326.28 232.88C326.44 233.03 326.13 232.63 326.22 232.81L326.28 232.91C326.28 232.96 326.28 233 326.28 233.05C326.28 233.05 326.37 232.74 326.28 232.87C326.25 232.95 326.23 233.02 326.22 233.1C326.17 233.3 326.36 232.84 326.22 233.01C326.22 233.01 326.17 233.09 326.16 233.13C326.14 233.17 326.04 233.3 325.99 233.39C325.93 233.49 326.18 233.16 326.03 233.33L325.93 233.45C325.86 233.54 325.78 233.62 325.71 233.69C325.64 233.77 325.31 234.04 325.11 234.22C325.05 234.27 324.95 234.37 325.18 234.17L325 234.3C324.9 234.38 324.8 234.45 324.69 234.52C324.58 234.59 324.21 234.84 323.97 234.98C323.5 235.26 323.02 235.52 322.54 235.76L321.75 236.13L321.62 236.18L321.28 236.31C320.94 236.44 320.59 236.55 320.23 236.63C320.08 236.67 319.93 236.74 319.81 236.84C319.68 236.93 319.57 237.05 319.5 237.19C319.42 237.32 319.37 237.48 319.34 237.63C319.32 237.79 319.33 237.95 319.38 238.1C319.46 238.41 319.66 238.67 319.94 238.82C320.21 238.98 320.54 239.03 320.84 238.95L320.96 239.09Z" fill="#010101" fill-opacity="1.000000" fill-rule="nonzero"/>
		<path d="M196.07 261.32C191.9 261.84 187.68 261.48 183.67 260.26C180.79 259.4 175.18 257.64 175.98 253.67C176.34 251.82 177.69 250.25 178.97 248.95C180.27 247.63 181.7 246.44 183.24 245.39C186.4 243.25 189.94 241.73 193.67 240.92C195.18 240.59 194.53 238.28 193.04 238.61C186.54 240.05 179.98 243.62 175.81 248.91C173.81 251.48 172.52 254.97 174.66 257.85C176.62 260.49 180.43 261.79 183.46 262.67C187.56 263.88 191.87 264.23 196.11 263.71C197.61 263.52 197.63 261.15 196.11 261.32L196.07 261.32Z" fill="#010101" fill-opacity="1.000000" fill-rule="nonzero"/>
		<path d="M191.1 245.99C189.49 246.17 187.92 246.62 186.46 247.32C185.05 247.95 183.8 248.88 182.79 250.04C182.29 250.65 181.97 251.4 181.88 252.19C181.8 252.98 181.94 253.77 182.3 254.48C182.64 255.14 183.11 255.73 183.68 256.2C184.24 256.68 184.9 257.04 185.61 257.25C187.47 257.83 189.44 257.54 191.32 257.25C191.63 257.17 191.89 256.97 192.05 256.69C192.21 256.42 192.25 256.09 192.17 255.78C192.08 255.48 191.88 255.22 191.61 255.06C191.34 254.9 191.01 254.85 190.7 254.93C189.16 255.16 187.45 255.42 185.96 254.82C186.1 254.87 185.72 254.69 185.67 254.66C185.53 254.58 185.38 254.48 185.25 254.38C185.32 254.43 185.3 254.38 185.19 254.32L185 254.14C185 254.14 184.69 253.81 184.77 253.9C184.67 253.77 184.58 253.62 184.49 253.48C184.45 253.4 184.42 253.33 184.38 253.25C184.38 253.35 184.38 253.33 184.38 253.19C184.33 253.04 184.28 252.88 184.26 252.72C184.26 252.94 184.26 252.48 184.26 252.44C184.26 252.4 184.26 252.28 184.26 252.4C184.26 252.31 184.26 252.24 184.31 252.15C184.35 252.03 184.4 251.92 184.47 251.81C184.64 251.53 184.85 251.29 185.09 251.07C185.64 250.58 186.25 250.14 186.89 249.78C188.21 249.03 189.66 248.54 191.16 248.36C191.48 248.35 191.78 248.22 192 248C192.22 247.78 192.35 247.48 192.36 247.16C192.36 246.85 192.23 246.54 192.01 246.32C191.78 246.1 191.48 245.97 191.16 245.97L191.1 245.99Z" fill="#010101" fill-opacity="1.000000" fill-rule="nonzero"/>
		<path d="M257.09 250.01C259.18 255.36 261.56 260.72 263.25 266.07C263.34 266.38 263.36 266.7 263.31 267.02C263.25 267.33 263.12 267.63 262.93 267.89C262.74 268.14 262.5 268.35 262.21 268.5C261.93 268.64 261.61 268.72 261.29 268.72L253.61 268.78C253.32 268.78 253.04 268.72 252.77 268.6C252.51 268.48 252.28 268.31 252.09 268.09C251.89 267.87 251.75 267.62 251.66 267.34C251.58 267.07 251.55 266.78 251.58 266.49L253.12 250.5C253.17 250.04 253.38 249.62 253.7 249.29C254.03 248.96 254.45 248.75 254.91 248.69C255.37 248.63 255.84 248.73 256.23 248.97C256.63 249.21 256.93 249.57 257.09 250.01Z" fill="#C05929" fill-opacity="1.000000" fill-rule="nonzero"/>
		<path d="M188.4 166.87L316.4 162.26L294.26 105.36L210.96 105.36L188.4 166.87Z" fill="#153A23" fill-opacity="1.000000" fill-rule="nonzero"/>
		<path d="M213.78 340.05C241.34 337.17 269.09 336.65 296.74 338.48C298.26 338.58 298.26 336.19 296.74 336.09C269.09 334.25 241.34 334.78 213.78 337.66C212.26 337.81 212.25 340.22 213.78 340.05Z" fill="#153A23" fill-opacity="1.000000" fill-rule="nonzero"/>
		<path d="M93.3 495.63C87.96 492.26 85.23 485.16 87.45 479.18C89.66 473.2 96.64 469.38 102.98 470.55L102.98 468.25C93.38 471.46 86.08 460.2 86.17 451.83C86.22 446.92 87.93 441.72 91.67 438.37C95.41 435.03 100.82 433.8 105.42 435.81C106.81 436.44 107.98 434.37 106.63 433.74C104.13 432.67 101.39 432.27 98.69 432.6C95.99 432.93 93.42 433.96 91.25 435.61C86.42 439.18 84.03 445.18 83.78 451.06C83.35 461.14 92.14 474.35 103.59 470.52C104.61 470.18 104.83 468.45 103.59 468.23C96.16 466.85 88.21 470.79 85.35 477.9C82.49 485.02 85.61 493.67 92.07 497.7C93.38 498.56 94.58 496.46 93.28 495.65L93.3 495.63Z" fill="#153A23" fill-opacity="1.000000" fill-rule="nonzero"/>
		<path d="M145.37 396.76C143.14 396.42 141.05 395.44 139.35 393.95C137.65 392.46 136.41 390.51 135.78 388.34C134.34 383.58 136.33 378.73 140.22 375.79C148.89 369.26 160.29 375.7 161.82 385.75L162.67 384.28C159.21 384.91 156.3 381.49 156.12 378.24C155.95 375 158.63 372.56 161.51 371.66C168.91 369.39 174.48 376.12 176.11 382.61C176.48 384.09 178.79 383.46 178.41 381.97C177.24 377.29 174.57 372.74 170.23 370.36C168.37 369.34 166.27 368.82 164.15 368.86C162.03 368.9 159.95 369.5 158.13 370.59C154.72 372.73 152.86 376.72 154.19 380.67C155.53 384.61 159.16 387.35 163.31 386.59C163.61 386.5 163.87 386.3 164.03 386.03C164.19 385.75 164.24 385.43 164.16 385.12C163.71 382.26 162.56 379.56 160.81 377.26C159.05 374.96 156.75 373.13 154.12 371.95C151.54 370.83 148.7 370.45 145.92 370.84C143.13 371.24 140.51 372.39 138.34 374.18C136.16 375.84 134.52 378.1 133.63 380.68C132.74 383.27 132.63 386.06 133.32 388.71C134.78 393.97 139.22 398.33 144.71 399.07C146.21 399.27 146.86 396.97 145.34 396.77L145.37 396.76Z" fill="#153A23" fill-opacity="1.000000" fill-rule="nonzero"/>
		<path d="M327.08 368.77C338.23 364.43 351.71 374.36 350.81 386.31L352.01 385.12C348.85 384.82 346.63 382.1 345.95 379.14C345.21 375.85 346.64 372.69 349.01 370.43C354.95 364.8 363.78 365.87 371.21 366.89C372.72 367.1 373.37 364.8 371.85 364.58C362.82 363.34 351.47 362.35 345.5 370.9C341.23 376.94 344.03 386.77 352.03 387.52C352.35 387.51 352.65 387.39 352.87 387.16C353.1 386.94 353.22 386.64 353.23 386.32C354.23 372.91 339.01 361.59 326.46 366.47C325.05 367.03 325.66 369.33 327.1 368.78L327.08 368.77Z" fill="#153A23" fill-opacity="1.000000" fill-rule="nonzero"/>
		<path d="M376 391.88C379.2 390.13 382.98 392.46 384.54 395.36C386.74 399.37 385.48 404.46 384.45 408.62C384.4 408.83 384.4 409.04 384.45 409.24C384.51 409.45 384.62 409.63 384.76 409.78C384.91 409.93 385.1 410.04 385.3 410.09C385.5 410.15 385.72 410.15 385.92 410.09C394.33 407.53 403.29 416.93 400.44 425.18C399.93 426.64 402.24 427.27 402.74 425.82C406.15 415.82 395.34 404.72 385.26 407.79L386.73 409.26C388.01 404.05 389.29 397.69 385.88 393.03C383.32 389.61 378.73 387.68 374.77 389.84C373.43 390.58 374.63 392.64 375.98 391.9L376 391.88Z" fill="#153A23" fill-opacity="1.000000" fill-rule="nonzero"/>
		<path d="M420.42 440.09C424.78 439.6 428.17 443.51 428.37 447.63C428.59 451.97 426.1 456.05 423.38 459.21C418.33 465.01 411.55 469.04 404.04 470.7C402.74 470.99 403.01 473.14 404.36 473.04C409.8 472.69 414.55 477.16 413.61 482.73C413.42 483.86 413.02 484.95 412.42 485.93C411.87 486.79 410.71 487.48 410.28 488.35C409.84 489.22 410.34 490.76 410.46 491.67L411.04 496.18C411.24 497.68 413.61 497.7 413.44 496.18L413.03 493.01C412.91 492.16 412.42 490.68 412.62 489.85C412.86 488.85 413.9 488.08 414.48 487.14C415.87 484.85 416.4 482.15 415.98 479.5C415.04 474.05 409.8 470.29 404.36 470.64L404.68 472.98C414.03 470.87 423.03 465.14 428.05 456.82C430.39 452.95 431.75 448.07 429.88 443.74C428.28 440.01 424.59 437.2 420.42 437.67C418.91 437.85 418.89 440.24 420.42 440.07L420.42 440.09Z" fill="#153A23" fill-opacity="1.000000" fill-rule="nonzero"/>
		<path d="M401.92 427.59C406.02 426.03 411.55 425.02 415.28 428.06C417.84 430.14 419.43 434.59 416.99 437.38C415.98 438.53 417.66 440.23 418.7 439.08C421.15 436.26 421 432.25 419.21 429.12C417.09 425.41 412.97 423.74 408.82 423.78C406.23 423.83 403.68 424.35 401.28 425.31C399.86 425.85 400.47 428.16 401.92 427.61L401.92 427.59Z" fill="#153A23" fill-opacity="1.000000" fill-rule="nonzero"/>
		<path d="M210.66 365.1C208.79 356.85 210.07 348.19 214.25 340.83C214.39 340.56 214.43 340.24 214.34 339.94C214.26 339.65 214.06 339.4 213.8 339.24C213.53 339.08 213.22 339.03 212.92 339.1C212.62 339.18 212.36 339.36 212.19 339.62C207.7 347.54 206.34 356.86 208.37 365.74C208.72 367.24 211.03 366.59 210.68 365.1L210.66 365.1Z" fill="#153A23" fill-opacity="1.000000" fill-rule="nonzero"/>
		<path d="M222.74 361.62C221.95 359.11 221.78 356.44 222.24 353.85C222.7 351.26 223.77 348.82 225.38 346.73C225.53 346.46 225.57 346.13 225.49 345.82C225.41 345.52 225.21 345.25 224.94 345.09C224.66 344.94 224.34 344.9 224.04 344.99C223.73 345.07 223.47 345.26 223.31 345.53C221.54 347.89 220.36 350.64 219.86 353.54C219.35 356.45 219.55 359.44 220.43 362.25C220.9 363.71 223.21 363.11 222.74 361.62Z" fill="#153A23" fill-opacity="1.000000" fill-rule="nonzero"/>
		<path d="M238.41 365.47C239.13 361.2 238.31 356.59 237.72 352.37C237.14 348.15 236.6 343.49 234.95 339.49C234.37 338.08 232.05 338.69 232.64 340.12C234.21 343.93 234.74 348.32 235.32 352.37C235.68 354.8 235.97 357.25 236.12 359.71C236.31 361.41 236.31 363.13 236.12 364.83C235.87 366.33 238.17 366.98 238.42 365.46L238.41 365.47Z" fill="#153A23" fill-opacity="1.000000" fill-rule="nonzero"/>
		<path d="M246.71 344.7C247.17 350.1 246.95 355.53 246.05 360.88C245.79 362.38 248.1 363.03 248.36 361.51C249.31 355.96 249.56 350.31 249.1 344.7C248.97 343.18 246.58 343.17 246.71 344.7Z" fill="#153A23" fill-opacity="1.000000" fill-rule="nonzero"/>
		<path d="M261.12 361.37C262.4 357.36 262.86 353.13 262.48 348.93C262.35 344.74 261.32 340.62 259.46 336.87C258.73 335.51 256.67 336.71 257.4 338.07C259.22 341.49 259.89 345.47 260.12 349.28C260.44 353.15 259.99 357.04 258.81 360.74C258.3 362.19 260.6 362.82 261.12 361.37Z" fill="#153A23" fill-opacity="1.000000" fill-rule="nonzero"/>
		<path d="M267.81 342.76C271.18 348.46 272.35 355.19 271.08 361.69C270.78 363.19 273.09 363.83 273.39 362.32C274.8 355.2 273.54 347.81 269.86 341.56C269.7 341.28 269.44 341.08 269.13 341C268.82 340.92 268.5 340.96 268.23 341.12C267.95 341.28 267.75 341.55 267.67 341.85C267.59 342.16 267.63 342.49 267.79 342.76L267.81 342.76Z" fill="#153A23" fill-opacity="1.000000" fill-rule="nonzero"/>
		<path d="M296.96 341.56C300.63 347.4 302.22 354.31 301.46 361.16C301.3 362.69 303.69 362.68 303.85 361.16C304.63 353.88 302.93 346.56 299.04 340.36C298.19 339.06 296.16 340.26 296.98 341.56L296.96 341.56Z" fill="#153A23" fill-opacity="1.000000" fill-rule="nonzero"/>
		<path d="M288.36 361.36C287.08 358.68 286.45 355.73 286.51 352.76C286.57 349.79 287.32 346.87 288.71 344.24C289.43 342.88 287.38 341.68 286.65 343.03C285.07 346.03 284.21 349.37 284.15 352.76C284.09 356.15 284.82 359.51 286.3 362.57C286.97 363.95 289.02 362.74 288.36 361.36Z" fill="#153A23" fill-opacity="1.000000" fill-rule="nonzero"/>
		<path d="M225.8 371.14C241.09 370.18 256.38 369.14 271.65 368.03C279.22 367.46 286.78 366.89 294.34 366.32C298.11 366.03 301.89 365.74 305.67 365.46C308.57 365.22 311.42 364.95 313.93 363.36C315.22 362.51 314.02 360.47 312.71 361.3C309.69 363.22 305.82 363.06 302.36 363.34L291.97 364.19C284.57 364.76 277.17 365.32 269.77 365.86C255.12 366.92 240.47 367.91 225.8 368.83C224.28 368.92 224.27 371.31 225.8 371.21L225.8 371.14Z" fill="#153A23" fill-opacity="1.000000" fill-rule="nonzero"/>
		<path d="M107.92 433.73C104.6 431.9 101.37 428.6 101.53 424.53C101.66 421.04 105.52 417.36 109.08 418.99C110.04 419.42 111.49 418.43 110.72 417.35C109.54 415.71 108.36 413.37 109.35 411.37C110.13 409.8 112.37 409.03 113.62 410.51C114.43 411.45 115.89 410.44 115.62 409.35C114.87 406.39 113.81 400.57 118.39 400.25C122.79 399.95 125 404.59 126.57 407.94C127.1 409.07 128.77 408.44 128.8 407.33L129.03 398.79C129.03 397.74 128.67 395.38 129.94 394.9C131.38 394.39 132.77 396.33 133.51 397.25C134.48 398.44 136.17 396.74 135.22 395.54C133.47 393.39 129.76 390.72 127.43 393.83C126.36 395.24 126.7 397.54 126.64 399.18L126.42 407.36L128.65 406.76C126.54 402.29 122.97 396.57 117.09 398.08C111.67 399.45 112.26 405.83 113.33 410.03L115.33 408.87C113.43 406.68 110.01 407.11 108.1 409.09C105.53 411.78 106.75 415.97 108.66 418.63L110.29 417C105.79 414.95 100.68 418.08 99.42 422.68C97.91 428.2 102.19 433.38 106.72 435.87C108.07 436.61 109.28 434.56 107.92 433.81L107.92 433.73Z" fill="#153A23" fill-opacity="1.000000" fill-rule="nonzero"/>
		<path d="M178.54 371.1C179.4 368.55 181.01 366.32 183.15 364.69C185.29 363.06 187.86 362.11 190.55 361.96C193.23 361.81 195.9 362.46 198.21 363.83C200.52 365.21 202.37 367.24 203.51 369.67C204.2 371.05 206.26 369.85 205.58 368.47C204.19 365.63 201.99 363.27 199.26 361.69C196.53 360.11 193.39 359.38 190.24 359.6C187.09 359.81 184.07 360.96 181.58 362.9C179.08 364.83 177.22 367.47 176.24 370.47C175.72 371.92 178.04 372.54 178.54 371.1Z" fill="#153A23" fill-opacity="1.000000" fill-rule="nonzero"/>
		<path d="M226.08 476.03C224.38 473.47 222.85 470.11 224.42 467.1C226.08 463.93 229.39 464.49 231.85 466.31C235.63 469.12 241.91 475.95 238.68 480.92L240.56 480.68C238.72 479.12 238.85 476.41 240.14 474.53C241.61 472.35 244.37 471.49 246.82 471.02C250.87 470.23 257.24 469.51 259.72 473.69C259.87 473.97 260.14 474.17 260.44 474.25C260.75 474.33 261.08 474.28 261.35 474.13C261.62 473.97 261.82 473.7 261.9 473.4C261.99 473.09 261.94 472.76 261.78 472.49C258.43 466.83 249.89 467.57 244.46 469.12C241.43 469.97 238.56 471.68 237.37 474.74C236.32 477.36 236.65 480.48 238.87 482.37C239 482.5 239.16 482.59 239.33 482.65C239.5 482.7 239.69 482.72 239.87 482.7C240.04 482.68 240.22 482.61 240.37 482.52C240.52 482.42 240.65 482.29 240.75 482.13C242.91 478.72 241.8 474.89 239.81 471.7C237.72 468.36 234.62 464.68 230.96 463.04C229.43 462.3 227.67 462.18 226.06 462.71C224.45 463.25 223.1 464.39 222.32 465.9C220.29 469.68 221.81 473.9 223.98 477.24C224.84 478.53 226.89 477.33 226.05 476.03L226.08 476.03Z" fill="#153A23" fill-opacity="1.000000" fill-rule="nonzero"/>
		<path d="M283.12 405.51C284.16 405.04 285.28 404.79 286.41 404.78C287.54 404.77 288.67 404.99 289.71 405.44C290.76 405.88 291.7 406.54 292.47 407.36C293.25 408.19 293.85 409.17 294.23 410.24C294.59 411.28 294.74 412.4 294.65 413.5C294.59 414.3 294.24 416.15 293.23 416.29C291.93 416.47 292.42 414.72 292.96 414.21C293.84 413.52 294.92 413.15 296.03 413.14C300.3 412.84 304.17 415.87 306.08 419.47C308.49 424.01 308.26 429.51 307.53 434.44C307.31 435.94 309.6 436.59 309.83 435.08C310.68 429.47 310.89 423.42 308.12 418.26C305.92 414.11 301.47 410.75 296.64 410.73C294.49 410.73 291.85 411.36 290.6 413.29C289.56 414.88 289.75 417.35 291.54 418.35C293.58 419.52 295.63 417.87 296.45 416.04C297.31 413.75 297.24 411.22 296.26 408.98C295.73 407.7 294.96 406.53 293.99 405.55C293.01 404.56 291.85 403.78 290.57 403.25C289.3 402.71 287.93 402.43 286.54 402.43C285.15 402.42 283.78 402.69 282.5 403.22C281.09 403.8 281.71 406.11 283.13 405.52L283.12 405.51Z" fill="#153A23" fill-opacity="1.000000" fill-rule="nonzero"/>
		<path d="M193.4 404.98C199.27 406.33 205.56 401.33 205.42 395.27C205.42 393.73 202.99 393.72 203.03 395.27C203.14 399.74 198.37 403.67 194.04 402.67C192.54 402.32 191.91 404.63 193.4 404.98Z" fill="#153A23" fill-opacity="1.000000" fill-rule="nonzero"/>
		<path d="M125.65 449.57C122.9 447.42 118.21 448.8 117.53 452.42C116.8 456.35 121.47 459.34 124.86 457.54L123.1 456.83C123.48 457.88 122.01 458.91 121.39 459.62C120.88 460.13 120.47 460.75 120.21 461.43C119.95 462.11 119.83 462.84 119.87 463.57C120.17 466.68 123.18 468.97 125.68 470.41C125.95 470.54 126.26 470.56 126.55 470.48C126.84 470.39 127.08 470.2 127.24 469.93C127.39 469.67 127.44 469.37 127.37 469.07C127.31 468.78 127.13 468.52 126.88 468.35C125.12 467.34 121.49 465 122.35 462.47C122.73 461.33 123.88 460.52 124.6 459.61C125.03 459.16 125.32 458.61 125.47 458.01C125.61 457.41 125.59 456.78 125.41 456.19C125.35 456.02 125.26 455.86 125.14 455.72C125.01 455.59 124.86 455.49 124.7 455.42C124.53 455.35 124.34 455.32 124.16 455.33C123.98 455.34 123.81 455.4 123.65 455.48C122.02 456.34 119.5 454.71 119.87 452.82C120.2 451.22 122.65 450.2 123.96 451.23C125.28 452.26 126.87 450.49 125.67 449.52L125.65 449.57Z" fill="#153A23" fill-opacity="1.000000" fill-rule="nonzero"/>
		<path d="M337.97 448.43C337.48 452.95 337.32 457.82 339 462.15C340.68 466.48 343.91 468.3 348.32 469.35C349.64 469.68 352.04 470.37 352.13 472.13C352.21 473.89 349.92 474.04 348.86 474.69C348.05 475.21 347.36 475.88 346.83 476.68C346.3 477.48 345.94 478.39 345.78 479.33C344.6 484.95 349.44 490.87 346.88 496.15C346.22 497.52 348.28 498.71 348.95 497.35C351.68 491.69 347.46 486.57 347.97 480.84C347.98 480.09 348.15 479.36 348.47 478.68C348.79 478 349.24 477.39 349.81 476.91C350.67 476.26 351.85 476.12 352.78 475.54C353.55 475.06 354.12 474.32 354.38 473.45C354.64 472.58 354.58 471.64 354.19 470.82C353.34 468.71 351.39 467.71 349.32 467.17C346.45 466.41 343.93 465.92 342.2 463.27C339.46 459.06 339.84 453.22 340.36 448.45C340.52 446.93 338.13 446.94 337.97 448.45L337.97 448.43Z" fill="#153A23" fill-opacity="1.000000" fill-rule="nonzero"/>
		<path d="M173.45 446.82C175.01 449.5 175.68 452.61 175.36 455.69C175.04 458.78 173.74 461.68 171.66 463.98C171.53 464.11 171.44 464.27 171.38 464.44C171.32 464.61 171.3 464.8 171.33 464.97C171.35 465.15 171.41 465.33 171.51 465.48C171.61 465.63 171.74 465.76 171.9 465.85C177.54 468.24 178.29 475.25 177.93 480.62C177.5 486.89 176.28 493.53 179.92 499.12C180.77 500.41 182.82 499.22 181.98 497.92C177.84 491.54 180.76 483.86 180.35 476.84C180.05 471.65 178.26 465.97 173.1 463.79L173.35 465.66C175.79 462.98 177.32 459.6 177.71 455.99C178.1 452.39 177.33 448.75 175.52 445.61C175.36 445.33 175.09 445.14 174.79 445.06C174.48 444.98 174.15 445.02 173.88 445.18C173.61 445.34 173.41 445.61 173.33 445.91C173.25 446.22 173.29 446.55 173.45 446.82Z" fill="#153A23" fill-opacity="1.000000" fill-rule="nonzero"/>
		<path d="M76.63 351.05C77.83 346.76 79.33 342.55 81.13 338.47C81.42 337.85 81.98 337.12 82.63 337.4C83.28 337.67 83.16 338.46 83.01 339.1C82.1 342.95 81.19 346.79 80.26 350.63C83.85 350.29 87.47 350.84 90.8 352.23C90.89 352.28 90.97 352.34 91.03 352.42C91.08 352.51 91.12 352.6 91.12 352.7C91.13 352.8 91.11 352.9 91.07 352.99C91.02 353.08 90.95 353.16 90.87 353.21C88.87 354.5 86.52 355.12 84.15 355C83.29 355 82.33 354.85 81.71 355.44C81.35 355.86 81.12 356.38 81.04 356.93C80.25 360.24 79.03 363.43 77.42 366.43C77.35 366.54 77.25 366.63 77.14 366.69C77.02 366.75 76.89 366.76 76.76 366.74C76.63 366.72 76.51 366.67 76.41 366.58C76.32 366.49 76.25 366.37 76.22 366.24C75.55 363.26 76.89 359.9 76.81 356.72C76.84 356.36 76.75 356 76.56 355.7C76.24 355.38 75.83 355.17 75.38 355.13C72 354.38 68.69 353.37 65.47 352.11C64.62 351.78 63.58 350.81 64.22 350.13C64.43 349.94 64.7 349.83 64.98 349.8C66.98 349.39 69.04 349.39 71.04 349.8L76.63 351.05Z" fill="#FFFFFF" fill-opacity="1.000000" fill-rule="nonzero"/>
		<path d="M48.72 380.62C45.47 383.69 46.26 390.2 51.83 388.64C60.07 386.33 54.28 375.35 48.72 380.62Z" fill="#FFFFFF" fill-opacity="1.000000" fill-rule="nonzero"/>
		<path d="M57.47 243.15C53.01 247.36 54.11 256.29 61.74 254.14C73.01 250.98 65.1 235.93 57.47 243.15Z" fill="#FFFFFF" fill-opacity="1.000000" fill-rule="nonzero"/>
		<path d="M167.22 89.95C166.99 85.5 167.07 81.05 167.48 76.61C167.56 75.94 167.88 75.06 168.56 75.12C169.24 75.18 169.41 75.97 169.46 76.59C169.83 80.52 170.19 84.45 170.54 88.39C173.84 86.92 177.44 86.28 181.04 86.54C181.14 86.55 181.24 86.58 181.32 86.64C181.4 86.7 181.47 86.78 181.5 86.88C181.54 86.97 181.56 87.07 181.54 87.17C181.53 87.27 181.48 87.37 181.42 87.44C179.94 89.3 177.91 90.64 175.63 91.29C174.78 91.52 173.85 91.72 173.45 92.48C173.25 93 173.19 93.57 173.3 94.11C173.62 97.53 173.48 100.98 172.9 104.36C172.87 104.49 172.81 104.61 172.71 104.7C172.62 104.8 172.5 104.86 172.37 104.88C172.24 104.9 172.11 104.88 171.99 104.83C171.87 104.77 171.77 104.68 171.7 104.57C170.11 101.96 170.31 98.35 169.22 95.36C169.12 95.03 168.92 94.73 168.65 94.51C168.25 94.31 167.79 94.25 167.35 94.35C163.91 94.71 160.45 94.82 157 94.66C156.06 94.66 154.79 94.03 155.18 93.19C155.32 92.94 155.54 92.74 155.8 92.62C157.57 91.61 159.52 90.96 161.55 90.72L167.22 89.95Z" fill="#FFFFFF" fill-opacity="1.000000" fill-rule="nonzero"/>
		<path d="M153.08 116.79C150.62 119.12 151.22 124.07 155.46 122.88C161.71 121.13 157.32 112.79 153.08 116.79Z" fill="#FFFFFF" fill-opacity="1.000000" fill-rule="nonzero"/>
		<path d="M343.14 76.25C338.5 80.64 339.64 89.91 347.6 87.73C359.37 84.42 351.11 68.71 343.14 76.25Z" fill="#FFFFFF" fill-opacity="1.000000" fill-rule="nonzero"/>
		<path d="M363.6 96.28C361.14 98.62 361.75 103.56 365.98 102.37C372.23 100.62 367.84 92.24 363.6 96.28Z" fill="#FFFFFF" fill-opacity="1.000000" fill-rule="nonzero"/>
		<path d="M102.19 259.47C99.72 261.8 100.32 266.75 104.55 265.56C110.8 263.81 106.41 255.47 102.19 259.47Z" fill="#FFFFFF" fill-opacity="1.000000" fill-rule="nonzero"/>
		<path d="M430.52 261.91C430.53 258.48 430.78 255.06 431.27 251.66C431.35 251.14 431.63 250.48 432.12 250.55C432.61 250.63 432.74 251.24 432.76 251.72C432.88 254.76 433 257.81 433.11 260.85C435.71 259.85 438.51 259.51 441.28 259.85C441.35 259.87 441.43 259.9 441.49 259.95C441.55 260 441.59 260.06 441.62 260.13C441.64 260.21 441.65 260.28 441.63 260.36C441.62 260.44 441.58 260.51 441.53 260.56C440.32 261.93 438.7 262.88 436.92 263.29C436.28 263.43 435.54 263.56 435.21 264.14C435.03 264.53 434.97 264.97 435.03 265.39C435.13 268.03 434.89 270.67 434.31 273.25C434.28 273.35 434.23 273.44 434.16 273.5C434.08 273.57 433.99 273.61 433.89 273.63C433.78 273.64 433.68 273.62 433.59 273.57C433.5 273.52 433.43 273.45 433.39 273.36C432.26 271.28 432.53 268.51 431.84 266.16C431.77 265.89 431.64 265.65 431.44 265.46C431.14 265.29 430.78 265.22 430.44 265.28C427.77 265.42 425.1 265.37 422.45 265.11C421.74 265.04 420.74 264.54 421.1 263.9C421.23 263.71 421.4 263.57 421.61 263.49C423.02 262.76 424.56 262.33 426.14 262.22L430.52 261.91Z" fill="#FFFFFF" fill-opacity="1.000000" fill-rule="nonzero"/>
		<path d="M455.41 234.49C452.16 237.56 452.96 244.07 458.53 242.51C466.75 240.2 460.98 229.23 455.41 234.49Z" fill="#FFFFFF" fill-opacity="1.000000" fill-rule="nonzero"/>
		<path d="M236.32 30.96C233.08 34.03 233.87 40.54 239.44 38.98C247.66 36.67 241.89 25.7 236.32 30.96Z" fill="#FFFFFF" fill-opacity="1.000000" fill-rule="nonzero"/>
		<path d="M427.25 375.05C422.02 380 423.31 390.48 432.28 387.97C445.53 384.25 436.22 366.57 427.25 375.05Z" fill="#FFFFFF" fill-opacity="1.000000" fill-rule="nonzero"/>
	</g>
</svg>
